<?xml version="1.0" encoding="utf-8" standalone="no"?>
<!DOCTYPE svg PUBLIC "-//W3C//DTD SVG 1.1//EN"
  "http://www.w3.org/Graphics/SVG/1.1/DTD/svg11.dtd">
<!-- Created with matplotlib (https://matplotlib.org/) -->
<svg height="864pt" version="1.1" viewBox="0 0 648 864" width="648pt" xmlns="http://www.w3.org/2000/svg" xmlns:xlink="http://www.w3.org/1999/xlink">
 <metadata>
  <rdf:RDF xmlns:cc="http://creativecommons.org/ns#" xmlns:dc="http://purl.org/dc/elements/1.1/" xmlns:rdf="http://www.w3.org/1999/02/22-rdf-syntax-ns#">
   <cc:Work>
    <dc:type rdf:resource="http://purl.org/dc/dcmitype/StillImage"/>
    <dc:date>2021-12-06T11:53:06.092933</dc:date>
    <dc:format>image/svg+xml</dc:format>
    <dc:creator>
     <cc:Agent>
      <dc:title>Matplotlib v3.3.4, https://matplotlib.org/</dc:title>
     </cc:Agent>
    </dc:creator>
   </cc:Work>
  </rdf:RDF>
 </metadata>
 <defs>
  <style type="text/css">*{stroke-linecap:butt;stroke-linejoin:round;}</style>
 </defs>
 <g id="figure_1">
  <g id="patch_1">
   <path d="M 0 864 
L 648 864 
L 648 0 
L 0 0 
z
" style="fill:none;"/>
  </g>
  <g id="axes_1">
   <g id="patch_2">
    <path d="M 81 295.538824 
L 309.272727 295.538824 
L 309.272727 103.68 
L 81 103.68 
z
" style="fill:#ffffff;"/>
   </g>
   <g id="PolyCollection_1">
    <defs>
     <path d="M 91.376033 -634.165134 
L 91.376033 -637.720815 
L 110.241548 -618.12561 
L 129.107062 -616.093235 
L 147.972577 -592.532843 
L 166.838092 -600.899127 
L 185.703606 -613.025843 
L 204.569121 -610.071001 
L 223.434636 -707.629299 
L 242.30015 -751.599144 
L 261.165665 -626.284543 
L 280.03118 -593.76612 
L 298.896694 -603.778648 
L 298.896694 -590.714312 
L 298.896694 -590.714312 
L 280.03118 -577.182032 
L 261.165665 -598.871947 
L 242.30015 -719.040464 
L 223.434636 -680.328819 
L 204.569121 -606.350392 
L 185.703606 -612.30856 
L 166.838092 -600.270584 
L 147.972577 -591.125982 
L 129.107062 -612.370462 
L 110.241548 -614.06216 
L 91.376033 -634.165134 
z
" id="m5a08dda123" style="stroke:#156796;"/>
    </defs>
    <g clip-path="url(#p29943d2d9e)">
     <use style="fill:#156796;stroke:#156796;" x="0" xlink:href="#m5a08dda123" y="864"/>
    </g>
   </g>
   <g id="matplotlib.axis_1">
    <g id="xtick_1">
     <g id="line2d_1">
      <defs>
       <path d="M 0 0 
L 0 3.5 
" id="mfee49955a5" style="stroke:#000000;stroke-width:0.8;"/>
      </defs>
      <g>
       <use style="stroke:#000000;stroke-width:0.8;" x="91.376033" xlink:href="#mfee49955a5" y="295.538824"/>
      </g>
     </g>
    </g>
    <g id="xtick_2">
     <g id="line2d_2">
      <g>
       <use style="stroke:#000000;stroke-width:0.8;" x="129.107062" xlink:href="#mfee49955a5" y="295.538824"/>
      </g>
     </g>
    </g>
    <g id="xtick_3">
     <g id="line2d_3">
      <g>
       <use style="stroke:#000000;stroke-width:0.8;" x="166.838092" xlink:href="#mfee49955a5" y="295.538824"/>
      </g>
     </g>
    </g>
    <g id="xtick_4">
     <g id="line2d_4">
      <g>
       <use style="stroke:#000000;stroke-width:0.8;" x="204.569121" xlink:href="#mfee49955a5" y="295.538824"/>
      </g>
     </g>
    </g>
    <g id="xtick_5">
     <g id="line2d_5">
      <g>
       <use style="stroke:#000000;stroke-width:0.8;" x="242.30015" xlink:href="#mfee49955a5" y="295.538824"/>
      </g>
     </g>
    </g>
    <g id="xtick_6">
     <g id="line2d_6">
      <g>
       <use style="stroke:#000000;stroke-width:0.8;" x="280.03118" xlink:href="#mfee49955a5" y="295.538824"/>
      </g>
     </g>
    </g>
   </g>
   <g id="matplotlib.axis_2">
    <g id="ytick_1">
     <g id="line2d_7">
      <defs>
       <path d="M 0 0 
L -3.5 0 
" id="mce4b11e022" style="stroke:#000000;stroke-width:0.8;"/>
      </defs>
      <g>
       <use style="stroke:#000000;stroke-width:0.8;" x="81" xlink:href="#mce4b11e022" y="268.405546"/>
      </g>
     </g>
     <g id="text_1">
      <!-- 200 -->
      <g transform="translate(54.9125 272.204765)scale(0.1 -0.1)">
       <defs>
        <path d="M 19.1875 8.296875 
L 53.609375 8.296875 
L 53.609375 0 
L 7.328125 0 
L 7.328125 8.296875 
Q 12.9375 14.109375 22.625 23.890625 
Q 32.328125 33.6875 34.8125 36.53125 
Q 39.546875 41.84375 41.421875 45.53125 
Q 43.3125 49.21875 43.3125 52.78125 
Q 43.3125 58.59375 39.234375 62.25 
Q 35.15625 65.921875 28.609375 65.921875 
Q 23.96875 65.921875 18.8125 64.3125 
Q 13.671875 62.703125 7.8125 59.421875 
L 7.8125 69.390625 
Q 13.765625 71.78125 18.9375 73 
Q 24.125 74.21875 28.421875 74.21875 
Q 39.75 74.21875 46.484375 68.546875 
Q 53.21875 62.890625 53.21875 53.421875 
Q 53.21875 48.921875 51.53125 44.890625 
Q 49.859375 40.875 45.40625 35.40625 
Q 44.1875 33.984375 37.640625 27.21875 
Q 31.109375 20.453125 19.1875 8.296875 
z
" id="DejaVuSans-50"/>
        <path d="M 31.78125 66.40625 
Q 24.171875 66.40625 20.328125 58.90625 
Q 16.5 51.421875 16.5 36.375 
Q 16.5 21.390625 20.328125 13.890625 
Q 24.171875 6.390625 31.78125 6.390625 
Q 39.453125 6.390625 43.28125 13.890625 
Q 47.125 21.390625 47.125 36.375 
Q 47.125 51.421875 43.28125 58.90625 
Q 39.453125 66.40625 31.78125 66.40625 
z
M 31.78125 74.21875 
Q 44.046875 74.21875 50.515625 64.515625 
Q 56.984375 54.828125 56.984375 36.375 
Q 56.984375 17.96875 50.515625 8.265625 
Q 44.046875 -1.421875 31.78125 -1.421875 
Q 19.53125 -1.421875 13.0625 8.265625 
Q 6.59375 17.96875 6.59375 36.375 
Q 6.59375 54.828125 13.0625 64.515625 
Q 19.53125 74.21875 31.78125 74.21875 
z
" id="DejaVuSans-48"/>
       </defs>
       <use xlink:href="#DejaVuSans-50"/>
       <use x="63.623047" xlink:href="#DejaVuSans-48"/>
       <use x="127.246094" xlink:href="#DejaVuSans-48"/>
      </g>
     </g>
    </g>
    <g id="ytick_2">
     <g id="line2d_8">
      <g>
       <use style="stroke:#000000;stroke-width:0.8;" x="81" xlink:href="#mce4b11e022" y="233.311345"/>
      </g>
     </g>
     <g id="text_2">
      <!-- 300 -->
      <g transform="translate(54.9125 237.110564)scale(0.1 -0.1)">
       <defs>
        <path d="M 40.578125 39.3125 
Q 47.65625 37.796875 51.625 33 
Q 55.609375 28.21875 55.609375 21.1875 
Q 55.609375 10.40625 48.1875 4.484375 
Q 40.765625 -1.421875 27.09375 -1.421875 
Q 22.515625 -1.421875 17.65625 -0.515625 
Q 12.796875 0.390625 7.625 2.203125 
L 7.625 11.71875 
Q 11.71875 9.328125 16.59375 8.109375 
Q 21.484375 6.890625 26.8125 6.890625 
Q 36.078125 6.890625 40.9375 10.546875 
Q 45.796875 14.203125 45.796875 21.1875 
Q 45.796875 27.640625 41.28125 31.265625 
Q 36.765625 34.90625 28.71875 34.90625 
L 20.21875 34.90625 
L 20.21875 43.015625 
L 29.109375 43.015625 
Q 36.375 43.015625 40.234375 45.921875 
Q 44.09375 48.828125 44.09375 54.296875 
Q 44.09375 59.90625 40.109375 62.90625 
Q 36.140625 65.921875 28.71875 65.921875 
Q 24.65625 65.921875 20.015625 65.03125 
Q 15.375 64.15625 9.8125 62.3125 
L 9.8125 71.09375 
Q 15.4375 72.65625 20.34375 73.4375 
Q 25.25 74.21875 29.59375 74.21875 
Q 40.828125 74.21875 47.359375 69.109375 
Q 53.90625 64.015625 53.90625 55.328125 
Q 53.90625 49.265625 50.4375 45.09375 
Q 46.96875 40.921875 40.578125 39.3125 
z
" id="DejaVuSans-51"/>
       </defs>
       <use xlink:href="#DejaVuSans-51"/>
       <use x="63.623047" xlink:href="#DejaVuSans-48"/>
       <use x="127.246094" xlink:href="#DejaVuSans-48"/>
      </g>
     </g>
    </g>
    <g id="ytick_3">
     <g id="line2d_9">
      <g>
       <use style="stroke:#000000;stroke-width:0.8;" x="81" xlink:href="#mce4b11e022" y="198.217143"/>
      </g>
     </g>
     <g id="text_3">
      <!-- 400 -->
      <g transform="translate(54.9125 202.016362)scale(0.1 -0.1)">
       <defs>
        <path d="M 37.796875 64.3125 
L 12.890625 25.390625 
L 37.796875 25.390625 
z
M 35.203125 72.90625 
L 47.609375 72.90625 
L 47.609375 25.390625 
L 58.015625 25.390625 
L 58.015625 17.1875 
L 47.609375 17.1875 
L 47.609375 0 
L 37.796875 0 
L 37.796875 17.1875 
L 4.890625 17.1875 
L 4.890625 26.703125 
z
" id="DejaVuSans-52"/>
       </defs>
       <use xlink:href="#DejaVuSans-52"/>
       <use x="63.623047" xlink:href="#DejaVuSans-48"/>
       <use x="127.246094" xlink:href="#DejaVuSans-48"/>
      </g>
     </g>
    </g>
    <g id="ytick_4">
     <g id="line2d_10">
      <g>
       <use style="stroke:#000000;stroke-width:0.8;" x="81" xlink:href="#mce4b11e022" y="163.122942"/>
      </g>
     </g>
     <g id="text_4">
      <!-- 500 -->
      <g transform="translate(54.9125 166.922161)scale(0.1 -0.1)">
       <defs>
        <path d="M 10.796875 72.90625 
L 49.515625 72.90625 
L 49.515625 64.59375 
L 19.828125 64.59375 
L 19.828125 46.734375 
Q 21.96875 47.46875 24.109375 47.828125 
Q 26.265625 48.1875 28.421875 48.1875 
Q 40.625 48.1875 47.75 41.5 
Q 54.890625 34.8125 54.890625 23.390625 
Q 54.890625 11.625 47.5625 5.09375 
Q 40.234375 -1.421875 26.90625 -1.421875 
Q 22.3125 -1.421875 17.546875 -0.640625 
Q 12.796875 0.140625 7.71875 1.703125 
L 7.71875 11.625 
Q 12.109375 9.234375 16.796875 8.0625 
Q 21.484375 6.890625 26.703125 6.890625 
Q 35.15625 6.890625 40.078125 11.328125 
Q 45.015625 15.765625 45.015625 23.390625 
Q 45.015625 31 40.078125 35.4375 
Q 35.15625 39.890625 26.703125 39.890625 
Q 22.75 39.890625 18.8125 39.015625 
Q 14.890625 38.140625 10.796875 36.28125 
z
" id="DejaVuSans-53"/>
       </defs>
       <use xlink:href="#DejaVuSans-53"/>
       <use x="63.623047" xlink:href="#DejaVuSans-48"/>
       <use x="127.246094" xlink:href="#DejaVuSans-48"/>
      </g>
     </g>
    </g>
    <g id="ytick_5">
     <g id="line2d_11">
      <g>
       <use style="stroke:#000000;stroke-width:0.8;" x="81" xlink:href="#mce4b11e022" y="128.02874"/>
      </g>
     </g>
     <g id="text_5">
      <!-- 600 -->
      <g transform="translate(54.9125 131.827959)scale(0.1 -0.1)">
       <defs>
        <path d="M 33.015625 40.375 
Q 26.375 40.375 22.484375 35.828125 
Q 18.609375 31.296875 18.609375 23.390625 
Q 18.609375 15.53125 22.484375 10.953125 
Q 26.375 6.390625 33.015625 6.390625 
Q 39.65625 6.390625 43.53125 10.953125 
Q 47.40625 15.53125 47.40625 23.390625 
Q 47.40625 31.296875 43.53125 35.828125 
Q 39.65625 40.375 33.015625 40.375 
z
M 52.59375 71.296875 
L 52.59375 62.3125 
Q 48.875 64.0625 45.09375 64.984375 
Q 41.3125 65.921875 37.59375 65.921875 
Q 27.828125 65.921875 22.671875 59.328125 
Q 17.53125 52.734375 16.796875 39.40625 
Q 19.671875 43.65625 24.015625 45.921875 
Q 28.375 48.1875 33.59375 48.1875 
Q 44.578125 48.1875 50.953125 41.515625 
Q 57.328125 34.859375 57.328125 23.390625 
Q 57.328125 12.15625 50.6875 5.359375 
Q 44.046875 -1.421875 33.015625 -1.421875 
Q 20.359375 -1.421875 13.671875 8.265625 
Q 6.984375 17.96875 6.984375 36.375 
Q 6.984375 53.65625 15.1875 63.9375 
Q 23.390625 74.21875 37.203125 74.21875 
Q 40.921875 74.21875 44.703125 73.484375 
Q 48.484375 72.75 52.59375 71.296875 
z
" id="DejaVuSans-54"/>
       </defs>
       <use xlink:href="#DejaVuSans-54"/>
       <use x="63.623047" xlink:href="#DejaVuSans-48"/>
       <use x="127.246094" xlink:href="#DejaVuSans-48"/>
      </g>
     </g>
    </g>
    <g id="text_6">
     <!-- Basin outflow (Million $m^3$) -->
     <g transform="translate(48.832812 264.009412)rotate(-90)scale(0.1 -0.1)">
      <defs>
       <path d="M 19.671875 34.8125 
L 19.671875 8.109375 
L 35.5 8.109375 
Q 43.453125 8.109375 47.28125 11.40625 
Q 51.125 14.703125 51.125 21.484375 
Q 51.125 28.328125 47.28125 31.5625 
Q 43.453125 34.8125 35.5 34.8125 
z
M 19.671875 64.796875 
L 19.671875 42.828125 
L 34.28125 42.828125 
Q 41.5 42.828125 45.03125 45.53125 
Q 48.578125 48.25 48.578125 53.8125 
Q 48.578125 59.328125 45.03125 62.0625 
Q 41.5 64.796875 34.28125 64.796875 
z
M 9.8125 72.90625 
L 35.015625 72.90625 
Q 46.296875 72.90625 52.390625 68.21875 
Q 58.5 63.53125 58.5 54.890625 
Q 58.5 48.1875 55.375 44.234375 
Q 52.25 40.28125 46.1875 39.3125 
Q 53.46875 37.75 57.5 32.78125 
Q 61.53125 27.828125 61.53125 20.40625 
Q 61.53125 10.640625 54.890625 5.3125 
Q 48.25 0 35.984375 0 
L 9.8125 0 
z
" id="DejaVuSans-66"/>
       <path d="M 34.28125 27.484375 
Q 23.390625 27.484375 19.1875 25 
Q 14.984375 22.515625 14.984375 16.5 
Q 14.984375 11.71875 18.140625 8.90625 
Q 21.296875 6.109375 26.703125 6.109375 
Q 34.1875 6.109375 38.703125 11.40625 
Q 43.21875 16.703125 43.21875 25.484375 
L 43.21875 27.484375 
z
M 52.203125 31.203125 
L 52.203125 0 
L 43.21875 0 
L 43.21875 8.296875 
Q 40.140625 3.328125 35.546875 0.953125 
Q 30.953125 -1.421875 24.3125 -1.421875 
Q 15.921875 -1.421875 10.953125 3.296875 
Q 6 8.015625 6 15.921875 
Q 6 25.140625 12.171875 29.828125 
Q 18.359375 34.515625 30.609375 34.515625 
L 43.21875 34.515625 
L 43.21875 35.40625 
Q 43.21875 41.609375 39.140625 45 
Q 35.0625 48.390625 27.6875 48.390625 
Q 23 48.390625 18.546875 47.265625 
Q 14.109375 46.140625 10.015625 43.890625 
L 10.015625 52.203125 
Q 14.9375 54.109375 19.578125 55.046875 
Q 24.21875 56 28.609375 56 
Q 40.484375 56 46.34375 49.84375 
Q 52.203125 43.703125 52.203125 31.203125 
z
" id="DejaVuSans-97"/>
       <path d="M 44.28125 53.078125 
L 44.28125 44.578125 
Q 40.484375 46.53125 36.375 47.5 
Q 32.28125 48.484375 27.875 48.484375 
Q 21.1875 48.484375 17.84375 46.4375 
Q 14.5 44.390625 14.5 40.28125 
Q 14.5 37.15625 16.890625 35.375 
Q 19.28125 33.59375 26.515625 31.984375 
L 29.59375 31.296875 
Q 39.15625 29.25 43.1875 25.515625 
Q 47.21875 21.78125 47.21875 15.09375 
Q 47.21875 7.46875 41.1875 3.015625 
Q 35.15625 -1.421875 24.609375 -1.421875 
Q 20.21875 -1.421875 15.453125 -0.5625 
Q 10.6875 0.296875 5.421875 2 
L 5.421875 11.28125 
Q 10.40625 8.6875 15.234375 7.390625 
Q 20.0625 6.109375 24.8125 6.109375 
Q 31.15625 6.109375 34.5625 8.28125 
Q 37.984375 10.453125 37.984375 14.40625 
Q 37.984375 18.0625 35.515625 20.015625 
Q 33.0625 21.96875 24.703125 23.78125 
L 21.578125 24.515625 
Q 13.234375 26.265625 9.515625 29.90625 
Q 5.8125 33.546875 5.8125 39.890625 
Q 5.8125 47.609375 11.28125 51.796875 
Q 16.75 56 26.8125 56 
Q 31.78125 56 36.171875 55.265625 
Q 40.578125 54.546875 44.28125 53.078125 
z
" id="DejaVuSans-115"/>
       <path d="M 9.421875 54.6875 
L 18.40625 54.6875 
L 18.40625 0 
L 9.421875 0 
z
M 9.421875 75.984375 
L 18.40625 75.984375 
L 18.40625 64.59375 
L 9.421875 64.59375 
z
" id="DejaVuSans-105"/>
       <path d="M 54.890625 33.015625 
L 54.890625 0 
L 45.90625 0 
L 45.90625 32.71875 
Q 45.90625 40.484375 42.875 44.328125 
Q 39.84375 48.1875 33.796875 48.1875 
Q 26.515625 48.1875 22.3125 43.546875 
Q 18.109375 38.921875 18.109375 30.90625 
L 18.109375 0 
L 9.078125 0 
L 9.078125 54.6875 
L 18.109375 54.6875 
L 18.109375 46.1875 
Q 21.34375 51.125 25.703125 53.5625 
Q 30.078125 56 35.796875 56 
Q 45.21875 56 50.046875 50.171875 
Q 54.890625 44.34375 54.890625 33.015625 
z
" id="DejaVuSans-110"/>
       <path id="DejaVuSans-32"/>
       <path d="M 30.609375 48.390625 
Q 23.390625 48.390625 19.1875 42.75 
Q 14.984375 37.109375 14.984375 27.296875 
Q 14.984375 17.484375 19.15625 11.84375 
Q 23.34375 6.203125 30.609375 6.203125 
Q 37.796875 6.203125 41.984375 11.859375 
Q 46.1875 17.53125 46.1875 27.296875 
Q 46.1875 37.015625 41.984375 42.703125 
Q 37.796875 48.390625 30.609375 48.390625 
z
M 30.609375 56 
Q 42.328125 56 49.015625 48.375 
Q 55.71875 40.765625 55.71875 27.296875 
Q 55.71875 13.875 49.015625 6.21875 
Q 42.328125 -1.421875 30.609375 -1.421875 
Q 18.84375 -1.421875 12.171875 6.21875 
Q 5.515625 13.875 5.515625 27.296875 
Q 5.515625 40.765625 12.171875 48.375 
Q 18.84375 56 30.609375 56 
z
" id="DejaVuSans-111"/>
       <path d="M 8.5 21.578125 
L 8.5 54.6875 
L 17.484375 54.6875 
L 17.484375 21.921875 
Q 17.484375 14.15625 20.5 10.265625 
Q 23.53125 6.390625 29.59375 6.390625 
Q 36.859375 6.390625 41.078125 11.03125 
Q 45.3125 15.671875 45.3125 23.6875 
L 45.3125 54.6875 
L 54.296875 54.6875 
L 54.296875 0 
L 45.3125 0 
L 45.3125 8.40625 
Q 42.046875 3.421875 37.71875 1 
Q 33.40625 -1.421875 27.6875 -1.421875 
Q 18.265625 -1.421875 13.375 4.4375 
Q 8.5 10.296875 8.5 21.578125 
z
M 31.109375 56 
z
" id="DejaVuSans-117"/>
       <path d="M 18.3125 70.21875 
L 18.3125 54.6875 
L 36.8125 54.6875 
L 36.8125 47.703125 
L 18.3125 47.703125 
L 18.3125 18.015625 
Q 18.3125 11.328125 20.140625 9.421875 
Q 21.96875 7.515625 27.59375 7.515625 
L 36.8125 7.515625 
L 36.8125 0 
L 27.59375 0 
Q 17.1875 0 13.234375 3.875 
Q 9.28125 7.765625 9.28125 18.015625 
L 9.28125 47.703125 
L 2.6875 47.703125 
L 2.6875 54.6875 
L 9.28125 54.6875 
L 9.28125 70.21875 
z
" id="DejaVuSans-116"/>
       <path d="M 37.109375 75.984375 
L 37.109375 68.5 
L 28.515625 68.5 
Q 23.6875 68.5 21.796875 66.546875 
Q 19.921875 64.59375 19.921875 59.515625 
L 19.921875 54.6875 
L 34.71875 54.6875 
L 34.71875 47.703125 
L 19.921875 47.703125 
L 19.921875 0 
L 10.890625 0 
L 10.890625 47.703125 
L 2.296875 47.703125 
L 2.296875 54.6875 
L 10.890625 54.6875 
L 10.890625 58.5 
Q 10.890625 67.625 15.140625 71.796875 
Q 19.390625 75.984375 28.609375 75.984375 
z
" id="DejaVuSans-102"/>
       <path d="M 9.421875 75.984375 
L 18.40625 75.984375 
L 18.40625 0 
L 9.421875 0 
z
" id="DejaVuSans-108"/>
       <path d="M 4.203125 54.6875 
L 13.1875 54.6875 
L 24.421875 12.015625 
L 35.59375 54.6875 
L 46.1875 54.6875 
L 57.421875 12.015625 
L 68.609375 54.6875 
L 77.59375 54.6875 
L 63.28125 0 
L 52.6875 0 
L 40.921875 44.828125 
L 29.109375 0 
L 18.5 0 
z
" id="DejaVuSans-119"/>
       <path d="M 31 75.875 
Q 24.46875 64.65625 21.28125 53.65625 
Q 18.109375 42.671875 18.109375 31.390625 
Q 18.109375 20.125 21.3125 9.0625 
Q 24.515625 -2 31 -13.1875 
L 23.1875 -13.1875 
Q 15.875 -1.703125 12.234375 9.375 
Q 8.59375 20.453125 8.59375 31.390625 
Q 8.59375 42.28125 12.203125 53.3125 
Q 15.828125 64.359375 23.1875 75.875 
z
" id="DejaVuSans-40"/>
       <path d="M 9.8125 72.90625 
L 24.515625 72.90625 
L 43.109375 23.296875 
L 61.8125 72.90625 
L 76.515625 72.90625 
L 76.515625 0 
L 66.890625 0 
L 66.890625 64.015625 
L 48.09375 14.015625 
L 38.1875 14.015625 
L 19.390625 64.015625 
L 19.390625 0 
L 9.8125 0 
z
" id="DejaVuSans-77"/>
       <path d="M 89.796875 33.015625 
L 83.40625 0 
L 74.421875 0 
L 80.71875 32.71875 
Q 81.109375 34.8125 81.296875 36.328125 
Q 81.5 37.84375 81.5 38.921875 
Q 81.5 43.3125 79.046875 45.75 
Q 76.609375 48.1875 72.21875 48.1875 
Q 65.671875 48.1875 60.546875 43.28125 
Q 55.421875 38.375 53.90625 30.515625 
L 47.90625 0 
L 38.921875 0 
L 45.3125 32.71875 
Q 45.703125 34.515625 45.890625 36.046875 
Q 46.09375 37.59375 46.09375 38.8125 
Q 46.09375 43.265625 43.65625 45.71875 
Q 41.21875 48.1875 36.921875 48.1875 
Q 30.28125 48.1875 25.140625 43.28125 
Q 20.015625 38.375 18.5 30.515625 
L 12.5 0 
L 3.515625 0 
L 14.203125 54.6875 
L 23.1875 54.6875 
L 21.484375 46.1875 
Q 25.140625 50.984375 30.046875 53.484375 
Q 34.96875 56 40.578125 56 
Q 46.53125 56 50.359375 52.875 
Q 54.203125 49.75 54.984375 44.1875 
Q 59.078125 49.953125 64.46875 52.96875 
Q 69.875 56 75.875 56 
Q 82.90625 56 86.734375 51.953125 
Q 90.578125 47.90625 90.578125 40.484375 
Q 90.578125 38.875 90.375 36.9375 
Q 90.1875 35.015625 89.796875 33.015625 
z
" id="DejaVuSans-Oblique-109"/>
       <path d="M 8.015625 75.875 
L 15.828125 75.875 
Q 23.140625 64.359375 26.78125 53.3125 
Q 30.421875 42.28125 30.421875 31.390625 
Q 30.421875 20.453125 26.78125 9.375 
Q 23.140625 -1.703125 15.828125 -13.1875 
L 8.015625 -13.1875 
Q 14.5 -2 17.703125 9.0625 
Q 20.90625 20.125 20.90625 31.390625 
Q 20.90625 42.671875 17.703125 53.65625 
Q 14.5 64.65625 8.015625 75.875 
z
" id="DejaVuSans-41"/>
      </defs>
      <use transform="translate(0 0.765625)" xlink:href="#DejaVuSans-66"/>
      <use transform="translate(68.603516 0.765625)" xlink:href="#DejaVuSans-97"/>
      <use transform="translate(129.882812 0.765625)" xlink:href="#DejaVuSans-115"/>
      <use transform="translate(181.982422 0.765625)" xlink:href="#DejaVuSans-105"/>
      <use transform="translate(209.765625 0.765625)" xlink:href="#DejaVuSans-110"/>
      <use transform="translate(273.144531 0.765625)" xlink:href="#DejaVuSans-32"/>
      <use transform="translate(304.931641 0.765625)" xlink:href="#DejaVuSans-111"/>
      <use transform="translate(366.113281 0.765625)" xlink:href="#DejaVuSans-117"/>
      <use transform="translate(429.492188 0.765625)" xlink:href="#DejaVuSans-116"/>
      <use transform="translate(468.701172 0.765625)" xlink:href="#DejaVuSans-102"/>
      <use transform="translate(503.90625 0.765625)" xlink:href="#DejaVuSans-108"/>
      <use transform="translate(531.689453 0.765625)" xlink:href="#DejaVuSans-111"/>
      <use transform="translate(592.871094 0.765625)" xlink:href="#DejaVuSans-119"/>
      <use transform="translate(674.658203 0.765625)" xlink:href="#DejaVuSans-32"/>
      <use transform="translate(706.445312 0.765625)" xlink:href="#DejaVuSans-40"/>
      <use transform="translate(745.458984 0.765625)" xlink:href="#DejaVuSans-77"/>
      <use transform="translate(831.738281 0.765625)" xlink:href="#DejaVuSans-105"/>
      <use transform="translate(859.521484 0.765625)" xlink:href="#DejaVuSans-108"/>
      <use transform="translate(887.304688 0.765625)" xlink:href="#DejaVuSans-108"/>
      <use transform="translate(915.087891 0.765625)" xlink:href="#DejaVuSans-105"/>
      <use transform="translate(942.871094 0.765625)" xlink:href="#DejaVuSans-111"/>
      <use transform="translate(1004.052734 0.765625)" xlink:href="#DejaVuSans-110"/>
      <use transform="translate(1067.431641 0.765625)" xlink:href="#DejaVuSans-32"/>
      <use transform="translate(1099.21875 0.765625)" xlink:href="#DejaVuSans-Oblique-109"/>
      <use transform="translate(1201.280755 39.046875)scale(0.7)" xlink:href="#DejaVuSans-51"/>
      <use transform="translate(1248.551263 0.765625)" xlink:href="#DejaVuSans-41"/>
     </g>
    </g>
   </g>
   <g id="patch_3">
    <path d="M 81 295.538824 
L 81 103.68 
" style="fill:none;stroke:#000000;stroke-linecap:square;stroke-linejoin:miter;stroke-width:0.8;"/>
   </g>
   <g id="patch_4">
    <path d="M 309.272727 295.538824 
L 309.272727 103.68 
" style="fill:none;stroke:#000000;stroke-linecap:square;stroke-linejoin:miter;stroke-width:0.8;"/>
   </g>
   <g id="patch_5">
    <path d="M 81 295.538824 
L 309.272727 295.538824 
" style="fill:none;stroke:#000000;stroke-linecap:square;stroke-linejoin:miter;stroke-width:0.8;"/>
   </g>
   <g id="patch_6">
    <path d="M 81 103.68 
L 309.272727 103.68 
" style="fill:none;stroke:#000000;stroke-linecap:square;stroke-linejoin:miter;stroke-width:0.8;"/>
   </g>
   <g id="text_7">
    <!-- 1992 -->
    <g transform="translate(179.866364 97.68)scale(0.12 -0.12)">
     <defs>
      <path d="M 12.40625 8.296875 
L 28.515625 8.296875 
L 28.515625 63.921875 
L 10.984375 60.40625 
L 10.984375 69.390625 
L 28.421875 72.90625 
L 38.28125 72.90625 
L 38.28125 8.296875 
L 54.390625 8.296875 
L 54.390625 0 
L 12.40625 0 
z
" id="DejaVuSans-49"/>
      <path d="M 10.984375 1.515625 
L 10.984375 10.5 
Q 14.703125 8.734375 18.5 7.8125 
Q 22.3125 6.890625 25.984375 6.890625 
Q 35.75 6.890625 40.890625 13.453125 
Q 46.046875 20.015625 46.78125 33.40625 
Q 43.953125 29.203125 39.59375 26.953125 
Q 35.25 24.703125 29.984375 24.703125 
Q 19.046875 24.703125 12.671875 31.3125 
Q 6.296875 37.9375 6.296875 49.421875 
Q 6.296875 60.640625 12.9375 67.421875 
Q 19.578125 74.21875 30.609375 74.21875 
Q 43.265625 74.21875 49.921875 64.515625 
Q 56.59375 54.828125 56.59375 36.375 
Q 56.59375 19.140625 48.40625 8.859375 
Q 40.234375 -1.421875 26.421875 -1.421875 
Q 22.703125 -1.421875 18.890625 -0.6875 
Q 15.09375 0.046875 10.984375 1.515625 
z
M 30.609375 32.421875 
Q 37.25 32.421875 41.125 36.953125 
Q 45.015625 41.5 45.015625 49.421875 
Q 45.015625 57.28125 41.125 61.84375 
Q 37.25 66.40625 30.609375 66.40625 
Q 23.96875 66.40625 20.09375 61.84375 
Q 16.21875 57.28125 16.21875 49.421875 
Q 16.21875 41.5 20.09375 36.953125 
Q 23.96875 32.421875 30.609375 32.421875 
z
" id="DejaVuSans-57"/>
     </defs>
     <use xlink:href="#DejaVuSans-49"/>
     <use x="63.623047" xlink:href="#DejaVuSans-57"/>
     <use x="127.246094" xlink:href="#DejaVuSans-57"/>
     <use x="190.869141" xlink:href="#DejaVuSans-50"/>
    </g>
   </g>
  </g>
  <g id="axes_2">
   <g id="patch_7">
    <path d="M 354.927273 295.538824 
L 583.2 295.538824 
L 583.2 103.68 
L 354.927273 103.68 
z
" style="fill:#ffffff;"/>
   </g>
   <g id="PolyCollection_2">
    <defs>
     <path d="M 365.303306 -618.133206 
L 365.303306 -619.758652 
L 384.16882 -616.036022 
L 403.034335 -620.659364 
L 421.89985 -615.722127 
L 440.765364 -621.907331 
L 459.630879 -632.740282 
L 478.496394 -639.078403 
L 497.361908 -751.599144 
L 516.227423 -598.533143 
L 535.092938 -720.922091 
L 553.958452 -656.144694 
L 572.823967 -659.181324 
L 572.823967 -653.494276 
L 572.823967 -653.494276 
L 553.958452 -644.115048 
L 535.092938 -700.696926 
L 516.227423 -577.182032 
L 497.361908 -738.958276 
L 478.496394 -636.991294 
L 459.630879 -631.620157 
L 440.765364 -620.788997 
L 421.89985 -613.948017 
L 403.034335 -620.328006 
L 384.16882 -615.256882 
L 365.303306 -618.133206 
z
" id="m8143f2f251" style="stroke:#156796;"/>
    </defs>
    <g clip-path="url(#p0603d8045b)">
     <use style="fill:#156796;stroke:#156796;" x="0" xlink:href="#m8143f2f251" y="864"/>
    </g>
   </g>
   <g id="matplotlib.axis_3">
    <g id="xtick_7">
     <g id="line2d_12">
      <g>
       <use style="stroke:#000000;stroke-width:0.8;" x="365.303306" xlink:href="#mfee49955a5" y="295.538824"/>
      </g>
     </g>
    </g>
    <g id="xtick_8">
     <g id="line2d_13">
      <g>
       <use style="stroke:#000000;stroke-width:0.8;" x="403.034335" xlink:href="#mfee49955a5" y="295.538824"/>
      </g>
     </g>
    </g>
    <g id="xtick_9">
     <g id="line2d_14">
      <g>
       <use style="stroke:#000000;stroke-width:0.8;" x="440.765364" xlink:href="#mfee49955a5" y="295.538824"/>
      </g>
     </g>
    </g>
    <g id="xtick_10">
     <g id="line2d_15">
      <g>
       <use style="stroke:#000000;stroke-width:0.8;" x="478.496394" xlink:href="#mfee49955a5" y="295.538824"/>
      </g>
     </g>
    </g>
    <g id="xtick_11">
     <g id="line2d_16">
      <g>
       <use style="stroke:#000000;stroke-width:0.8;" x="516.227423" xlink:href="#mfee49955a5" y="295.538824"/>
      </g>
     </g>
    </g>
    <g id="xtick_12">
     <g id="line2d_17">
      <g>
       <use style="stroke:#000000;stroke-width:0.8;" x="553.958452" xlink:href="#mfee49955a5" y="295.538824"/>
      </g>
     </g>
    </g>
   </g>
   <g id="matplotlib.axis_4">
    <g id="ytick_6">
     <g id="line2d_18">
      <g>
       <use style="stroke:#000000;stroke-width:0.8;" x="354.927273" xlink:href="#mce4b11e022" y="291.582586"/>
      </g>
     </g>
     <g id="text_8">
      <!-- 0 -->
      <g transform="translate(341.564773 295.381804)scale(0.1 -0.1)">
       <use xlink:href="#DejaVuSans-48"/>
      </g>
     </g>
    </g>
    <g id="ytick_7">
     <g id="line2d_19">
      <g>
       <use style="stroke:#000000;stroke-width:0.8;" x="354.927273" xlink:href="#mce4b11e022" y="255.280358"/>
      </g>
     </g>
     <g id="text_9">
      <!-- 200 -->
      <g transform="translate(328.839773 259.079577)scale(0.1 -0.1)">
       <use xlink:href="#DejaVuSans-50"/>
       <use x="63.623047" xlink:href="#DejaVuSans-48"/>
       <use x="127.246094" xlink:href="#DejaVuSans-48"/>
      </g>
     </g>
    </g>
    <g id="ytick_8">
     <g id="line2d_20">
      <g>
       <use style="stroke:#000000;stroke-width:0.8;" x="354.927273" xlink:href="#mce4b11e022" y="218.978131"/>
      </g>
     </g>
     <g id="text_10">
      <!-- 400 -->
      <g transform="translate(328.839773 222.777349)scale(0.1 -0.1)">
       <use xlink:href="#DejaVuSans-52"/>
       <use x="63.623047" xlink:href="#DejaVuSans-48"/>
       <use x="127.246094" xlink:href="#DejaVuSans-48"/>
      </g>
     </g>
    </g>
    <g id="ytick_9">
     <g id="line2d_21">
      <g>
       <use style="stroke:#000000;stroke-width:0.8;" x="354.927273" xlink:href="#mce4b11e022" y="182.675903"/>
      </g>
     </g>
     <g id="text_11">
      <!-- 600 -->
      <g transform="translate(328.839773 186.475122)scale(0.1 -0.1)">
       <use xlink:href="#DejaVuSans-54"/>
       <use x="63.623047" xlink:href="#DejaVuSans-48"/>
       <use x="127.246094" xlink:href="#DejaVuSans-48"/>
      </g>
     </g>
    </g>
    <g id="ytick_10">
     <g id="line2d_22">
      <g>
       <use style="stroke:#000000;stroke-width:0.8;" x="354.927273" xlink:href="#mce4b11e022" y="146.373676"/>
      </g>
     </g>
     <g id="text_12">
      <!-- 800 -->
      <g transform="translate(328.839773 150.172894)scale(0.1 -0.1)">
       <defs>
        <path d="M 31.78125 34.625 
Q 24.75 34.625 20.71875 30.859375 
Q 16.703125 27.09375 16.703125 20.515625 
Q 16.703125 13.921875 20.71875 10.15625 
Q 24.75 6.390625 31.78125 6.390625 
Q 38.8125 6.390625 42.859375 10.171875 
Q 46.921875 13.96875 46.921875 20.515625 
Q 46.921875 27.09375 42.890625 30.859375 
Q 38.875 34.625 31.78125 34.625 
z
M 21.921875 38.8125 
Q 15.578125 40.375 12.03125 44.71875 
Q 8.5 49.078125 8.5 55.328125 
Q 8.5 64.0625 14.71875 69.140625 
Q 20.953125 74.21875 31.78125 74.21875 
Q 42.671875 74.21875 48.875 69.140625 
Q 55.078125 64.0625 55.078125 55.328125 
Q 55.078125 49.078125 51.53125 44.71875 
Q 48 40.375 41.703125 38.8125 
Q 48.828125 37.15625 52.796875 32.3125 
Q 56.78125 27.484375 56.78125 20.515625 
Q 56.78125 9.90625 50.3125 4.234375 
Q 43.84375 -1.421875 31.78125 -1.421875 
Q 19.734375 -1.421875 13.25 4.234375 
Q 6.78125 9.90625 6.78125 20.515625 
Q 6.78125 27.484375 10.78125 32.3125 
Q 14.796875 37.15625 21.921875 38.8125 
z
M 18.3125 54.390625 
Q 18.3125 48.734375 21.84375 45.5625 
Q 25.390625 42.390625 31.78125 42.390625 
Q 38.140625 42.390625 41.71875 45.5625 
Q 45.3125 48.734375 45.3125 54.390625 
Q 45.3125 60.0625 41.71875 63.234375 
Q 38.140625 66.40625 31.78125 66.40625 
Q 25.390625 66.40625 21.84375 63.234375 
Q 18.3125 60.0625 18.3125 54.390625 
z
" id="DejaVuSans-56"/>
       </defs>
       <use xlink:href="#DejaVuSans-56"/>
       <use x="63.623047" xlink:href="#DejaVuSans-48"/>
       <use x="127.246094" xlink:href="#DejaVuSans-48"/>
      </g>
     </g>
    </g>
    <g id="ytick_11">
     <g id="line2d_23">
      <g>
       <use style="stroke:#000000;stroke-width:0.8;" x="354.927273" xlink:href="#mce4b11e022" y="110.071448"/>
      </g>
     </g>
     <g id="text_13">
      <!-- 1000 -->
      <g transform="translate(322.477273 113.870667)scale(0.1 -0.1)">
       <use xlink:href="#DejaVuSans-49"/>
       <use x="63.623047" xlink:href="#DejaVuSans-48"/>
       <use x="127.246094" xlink:href="#DejaVuSans-48"/>
       <use x="190.869141" xlink:href="#DejaVuSans-48"/>
      </g>
     </g>
    </g>
    <g id="text_14">
     <!-- Basin outflow (Million $m^3$) -->
     <g transform="translate(316.397585 264.009412)rotate(-90)scale(0.1 -0.1)">
      <use transform="translate(0 0.765625)" xlink:href="#DejaVuSans-66"/>
      <use transform="translate(68.603516 0.765625)" xlink:href="#DejaVuSans-97"/>
      <use transform="translate(129.882812 0.765625)" xlink:href="#DejaVuSans-115"/>
      <use transform="translate(181.982422 0.765625)" xlink:href="#DejaVuSans-105"/>
      <use transform="translate(209.765625 0.765625)" xlink:href="#DejaVuSans-110"/>
      <use transform="translate(273.144531 0.765625)" xlink:href="#DejaVuSans-32"/>
      <use transform="translate(304.931641 0.765625)" xlink:href="#DejaVuSans-111"/>
      <use transform="translate(366.113281 0.765625)" xlink:href="#DejaVuSans-117"/>
      <use transform="translate(429.492188 0.765625)" xlink:href="#DejaVuSans-116"/>
      <use transform="translate(468.701172 0.765625)" xlink:href="#DejaVuSans-102"/>
      <use transform="translate(503.90625 0.765625)" xlink:href="#DejaVuSans-108"/>
      <use transform="translate(531.689453 0.765625)" xlink:href="#DejaVuSans-111"/>
      <use transform="translate(592.871094 0.765625)" xlink:href="#DejaVuSans-119"/>
      <use transform="translate(674.658203 0.765625)" xlink:href="#DejaVuSans-32"/>
      <use transform="translate(706.445312 0.765625)" xlink:href="#DejaVuSans-40"/>
      <use transform="translate(745.458984 0.765625)" xlink:href="#DejaVuSans-77"/>
      <use transform="translate(831.738281 0.765625)" xlink:href="#DejaVuSans-105"/>
      <use transform="translate(859.521484 0.765625)" xlink:href="#DejaVuSans-108"/>
      <use transform="translate(887.304688 0.765625)" xlink:href="#DejaVuSans-108"/>
      <use transform="translate(915.087891 0.765625)" xlink:href="#DejaVuSans-105"/>
      <use transform="translate(942.871094 0.765625)" xlink:href="#DejaVuSans-111"/>
      <use transform="translate(1004.052734 0.765625)" xlink:href="#DejaVuSans-110"/>
      <use transform="translate(1067.431641 0.765625)" xlink:href="#DejaVuSans-32"/>
      <use transform="translate(1099.21875 0.765625)" xlink:href="#DejaVuSans-Oblique-109"/>
      <use transform="translate(1201.280755 39.046875)scale(0.7)" xlink:href="#DejaVuSans-51"/>
      <use transform="translate(1248.551263 0.765625)" xlink:href="#DejaVuSans-41"/>
     </g>
    </g>
   </g>
   <g id="patch_8">
    <path d="M 354.927273 295.538824 
L 354.927273 103.68 
" style="fill:none;stroke:#000000;stroke-linecap:square;stroke-linejoin:miter;stroke-width:0.8;"/>
   </g>
   <g id="patch_9">
    <path d="M 583.2 295.538824 
L 583.2 103.68 
" style="fill:none;stroke:#000000;stroke-linecap:square;stroke-linejoin:miter;stroke-width:0.8;"/>
   </g>
   <g id="patch_10">
    <path d="M 354.927273 295.538824 
L 583.2 295.538824 
" style="fill:none;stroke:#000000;stroke-linecap:square;stroke-linejoin:miter;stroke-width:0.8;"/>
   </g>
   <g id="patch_11">
    <path d="M 354.927273 103.68 
L 583.2 103.68 
" style="fill:none;stroke:#000000;stroke-linecap:square;stroke-linejoin:miter;stroke-width:0.8;"/>
   </g>
   <g id="text_15">
    <!-- 1993 -->
    <g transform="translate(453.793636 97.68)scale(0.12 -0.12)">
     <use xlink:href="#DejaVuSans-49"/>
     <use x="63.623047" xlink:href="#DejaVuSans-57"/>
     <use x="127.246094" xlink:href="#DejaVuSans-57"/>
     <use x="190.869141" xlink:href="#DejaVuSans-51"/>
    </g>
   </g>
  </g>
  <g id="axes_3">
   <g id="patch_12">
    <path d="M 81 525.769412 
L 309.272727 525.769412 
L 309.272727 333.910588 
L 81 333.910588 
z
" style="fill:#ffffff;"/>
   </g>
   <g id="PolyCollection_3">
    <defs>
     <path d="M 91.376033 -508.63555 
L 91.376033 -510.817174 
L 110.241548 -454.014651 
L 129.107062 -456.084435 
L 147.972577 -347.158756 
L 166.838092 -348.992435 
L 185.703606 -355.389095 
L 204.569121 -363.49244 
L 223.434636 -395.276309 
L 242.30015 -400.924343 
L 261.165665 -521.368556 
L 280.03118 -405.745857 
L 298.896694 -373.69315 
L 298.896694 -364.939985 
L 298.896694 -364.939985 
L 280.03118 -392.060248 
L 261.165665 -498.957969 
L 242.30015 -378.018511 
L 223.434636 -372.502926 
L 204.569121 -359.764768 
L 185.703606 -354.888394 
L 166.838092 -348.78876 
L 147.972577 -346.951444 
L 129.107062 -455.007262 
L 110.241548 -452.728954 
L 91.376033 -508.63555 
z
" id="m60598b1ad1" style="stroke:#156796;"/>
    </defs>
    <g clip-path="url(#pcd5f71cdca)">
     <use style="fill:#156796;stroke:#156796;" x="0" xlink:href="#m60598b1ad1" y="864"/>
    </g>
   </g>
   <g id="matplotlib.axis_5">
    <g id="xtick_13">
     <g id="line2d_24">
      <g>
       <use style="stroke:#000000;stroke-width:0.8;" x="91.376033" xlink:href="#mfee49955a5" y="525.769412"/>
      </g>
     </g>
    </g>
    <g id="xtick_14">
     <g id="line2d_25">
      <g>
       <use style="stroke:#000000;stroke-width:0.8;" x="129.107062" xlink:href="#mfee49955a5" y="525.769412"/>
      </g>
     </g>
    </g>
    <g id="xtick_15">
     <g id="line2d_26">
      <g>
       <use style="stroke:#000000;stroke-width:0.8;" x="166.838092" xlink:href="#mfee49955a5" y="525.769412"/>
      </g>
     </g>
    </g>
    <g id="xtick_16">
     <g id="line2d_27">
      <g>
       <use style="stroke:#000000;stroke-width:0.8;" x="204.569121" xlink:href="#mfee49955a5" y="525.769412"/>
      </g>
     </g>
    </g>
    <g id="xtick_17">
     <g id="line2d_28">
      <g>
       <use style="stroke:#000000;stroke-width:0.8;" x="242.30015" xlink:href="#mfee49955a5" y="525.769412"/>
      </g>
     </g>
    </g>
    <g id="xtick_18">
     <g id="line2d_29">
      <g>
       <use style="stroke:#000000;stroke-width:0.8;" x="280.03118" xlink:href="#mfee49955a5" y="525.769412"/>
      </g>
     </g>
    </g>
   </g>
   <g id="matplotlib.axis_6">
    <g id="ytick_12">
     <g id="line2d_30">
      <g>
       <use style="stroke:#000000;stroke-width:0.8;" x="81" xlink:href="#mce4b11e022" y="525.449944"/>
      </g>
     </g>
     <g id="text_16">
      <!-- 200 -->
      <g transform="translate(54.9125 529.249163)scale(0.1 -0.1)">
       <use xlink:href="#DejaVuSans-50"/>
       <use x="63.623047" xlink:href="#DejaVuSans-48"/>
       <use x="127.246094" xlink:href="#DejaVuSans-48"/>
      </g>
     </g>
    </g>
    <g id="ytick_13">
     <g id="line2d_31">
      <g>
       <use style="stroke:#000000;stroke-width:0.8;" x="81" xlink:href="#mce4b11e022" y="500.878246"/>
      </g>
     </g>
     <g id="text_17">
      <!-- 300 -->
      <g transform="translate(54.9125 504.677465)scale(0.1 -0.1)">
       <use xlink:href="#DejaVuSans-51"/>
       <use x="63.623047" xlink:href="#DejaVuSans-48"/>
       <use x="127.246094" xlink:href="#DejaVuSans-48"/>
      </g>
     </g>
    </g>
    <g id="ytick_14">
     <g id="line2d_32">
      <g>
       <use style="stroke:#000000;stroke-width:0.8;" x="81" xlink:href="#mce4b11e022" y="476.306549"/>
      </g>
     </g>
     <g id="text_18">
      <!-- 400 -->
      <g transform="translate(54.9125 480.105767)scale(0.1 -0.1)">
       <use xlink:href="#DejaVuSans-52"/>
       <use x="63.623047" xlink:href="#DejaVuSans-48"/>
       <use x="127.246094" xlink:href="#DejaVuSans-48"/>
      </g>
     </g>
    </g>
    <g id="ytick_15">
     <g id="line2d_33">
      <g>
       <use style="stroke:#000000;stroke-width:0.8;" x="81" xlink:href="#mce4b11e022" y="451.734851"/>
      </g>
     </g>
     <g id="text_19">
      <!-- 500 -->
      <g transform="translate(54.9125 455.534069)scale(0.1 -0.1)">
       <use xlink:href="#DejaVuSans-53"/>
       <use x="63.623047" xlink:href="#DejaVuSans-48"/>
       <use x="127.246094" xlink:href="#DejaVuSans-48"/>
      </g>
     </g>
    </g>
    <g id="ytick_16">
     <g id="line2d_34">
      <g>
       <use style="stroke:#000000;stroke-width:0.8;" x="81" xlink:href="#mce4b11e022" y="427.163153"/>
      </g>
     </g>
     <g id="text_20">
      <!-- 600 -->
      <g transform="translate(54.9125 430.962372)scale(0.1 -0.1)">
       <use xlink:href="#DejaVuSans-54"/>
       <use x="63.623047" xlink:href="#DejaVuSans-48"/>
       <use x="127.246094" xlink:href="#DejaVuSans-48"/>
      </g>
     </g>
    </g>
    <g id="ytick_17">
     <g id="line2d_35">
      <g>
       <use style="stroke:#000000;stroke-width:0.8;" x="81" xlink:href="#mce4b11e022" y="402.591455"/>
      </g>
     </g>
     <g id="text_21">
      <!-- 700 -->
      <g transform="translate(54.9125 406.390674)scale(0.1 -0.1)">
       <defs>
        <path d="M 8.203125 72.90625 
L 55.078125 72.90625 
L 55.078125 68.703125 
L 28.609375 0 
L 18.3125 0 
L 43.21875 64.59375 
L 8.203125 64.59375 
z
" id="DejaVuSans-55"/>
       </defs>
       <use xlink:href="#DejaVuSans-55"/>
       <use x="63.623047" xlink:href="#DejaVuSans-48"/>
       <use x="127.246094" xlink:href="#DejaVuSans-48"/>
      </g>
     </g>
    </g>
    <g id="ytick_18">
     <g id="line2d_36">
      <g>
       <use style="stroke:#000000;stroke-width:0.8;" x="81" xlink:href="#mce4b11e022" y="378.019757"/>
      </g>
     </g>
     <g id="text_22">
      <!-- 800 -->
      <g transform="translate(54.9125 381.818976)scale(0.1 -0.1)">
       <use xlink:href="#DejaVuSans-56"/>
       <use x="63.623047" xlink:href="#DejaVuSans-48"/>
       <use x="127.246094" xlink:href="#DejaVuSans-48"/>
      </g>
     </g>
    </g>
    <g id="ytick_19">
     <g id="line2d_37">
      <g>
       <use style="stroke:#000000;stroke-width:0.8;" x="81" xlink:href="#mce4b11e022" y="353.448059"/>
      </g>
     </g>
     <g id="text_23">
      <!-- 900 -->
      <g transform="translate(54.9125 357.247278)scale(0.1 -0.1)">
       <use xlink:href="#DejaVuSans-57"/>
       <use x="63.623047" xlink:href="#DejaVuSans-48"/>
       <use x="127.246094" xlink:href="#DejaVuSans-48"/>
      </g>
     </g>
    </g>
    <g id="text_24">
     <!-- Basin outflow (Million $m^3$) -->
     <g transform="translate(48.832812 494.24)rotate(-90)scale(0.1 -0.1)">
      <use transform="translate(0 0.765625)" xlink:href="#DejaVuSans-66"/>
      <use transform="translate(68.603516 0.765625)" xlink:href="#DejaVuSans-97"/>
      <use transform="translate(129.882812 0.765625)" xlink:href="#DejaVuSans-115"/>
      <use transform="translate(181.982422 0.765625)" xlink:href="#DejaVuSans-105"/>
      <use transform="translate(209.765625 0.765625)" xlink:href="#DejaVuSans-110"/>
      <use transform="translate(273.144531 0.765625)" xlink:href="#DejaVuSans-32"/>
      <use transform="translate(304.931641 0.765625)" xlink:href="#DejaVuSans-111"/>
      <use transform="translate(366.113281 0.765625)" xlink:href="#DejaVuSans-117"/>
      <use transform="translate(429.492188 0.765625)" xlink:href="#DejaVuSans-116"/>
      <use transform="translate(468.701172 0.765625)" xlink:href="#DejaVuSans-102"/>
      <use transform="translate(503.90625 0.765625)" xlink:href="#DejaVuSans-108"/>
      <use transform="translate(531.689453 0.765625)" xlink:href="#DejaVuSans-111"/>
      <use transform="translate(592.871094 0.765625)" xlink:href="#DejaVuSans-119"/>
      <use transform="translate(674.658203 0.765625)" xlink:href="#DejaVuSans-32"/>
      <use transform="translate(706.445312 0.765625)" xlink:href="#DejaVuSans-40"/>
      <use transform="translate(745.458984 0.765625)" xlink:href="#DejaVuSans-77"/>
      <use transform="translate(831.738281 0.765625)" xlink:href="#DejaVuSans-105"/>
      <use transform="translate(859.521484 0.765625)" xlink:href="#DejaVuSans-108"/>
      <use transform="translate(887.304688 0.765625)" xlink:href="#DejaVuSans-108"/>
      <use transform="translate(915.087891 0.765625)" xlink:href="#DejaVuSans-105"/>
      <use transform="translate(942.871094 0.765625)" xlink:href="#DejaVuSans-111"/>
      <use transform="translate(1004.052734 0.765625)" xlink:href="#DejaVuSans-110"/>
      <use transform="translate(1067.431641 0.765625)" xlink:href="#DejaVuSans-32"/>
      <use transform="translate(1099.21875 0.765625)" xlink:href="#DejaVuSans-Oblique-109"/>
      <use transform="translate(1201.280755 39.046875)scale(0.7)" xlink:href="#DejaVuSans-51"/>
      <use transform="translate(1248.551263 0.765625)" xlink:href="#DejaVuSans-41"/>
     </g>
    </g>
   </g>
   <g id="patch_13">
    <path d="M 81 525.769412 
L 81 333.910588 
" style="fill:none;stroke:#000000;stroke-linecap:square;stroke-linejoin:miter;stroke-width:0.8;"/>
   </g>
   <g id="patch_14">
    <path d="M 309.272727 525.769412 
L 309.272727 333.910588 
" style="fill:none;stroke:#000000;stroke-linecap:square;stroke-linejoin:miter;stroke-width:0.8;"/>
   </g>
   <g id="patch_15">
    <path d="M 81 525.769412 
L 309.272727 525.769412 
" style="fill:none;stroke:#000000;stroke-linecap:square;stroke-linejoin:miter;stroke-width:0.8;"/>
   </g>
   <g id="patch_16">
    <path d="M 81 333.910588 
L 309.272727 333.910588 
" style="fill:none;stroke:#000000;stroke-linecap:square;stroke-linejoin:miter;stroke-width:0.8;"/>
   </g>
   <g id="text_25">
    <!-- 1994 -->
    <g transform="translate(179.866364 327.910588)scale(0.12 -0.12)">
     <use xlink:href="#DejaVuSans-49"/>
     <use x="63.623047" xlink:href="#DejaVuSans-57"/>
     <use x="127.246094" xlink:href="#DejaVuSans-57"/>
     <use x="190.869141" xlink:href="#DejaVuSans-52"/>
    </g>
   </g>
  </g>
  <g id="axes_4">
   <g id="patch_17">
    <path d="M 354.927273 525.769412 
L 583.2 525.769412 
L 583.2 333.910588 
L 354.927273 333.910588 
z
" style="fill:#ffffff;"/>
   </g>
   <g id="PolyCollection_4">
    <defs>
     <path d="M 365.303306 -408.709844 
L 365.303306 -412.975847 
L 384.16882 -370.218229 
L 403.034335 -347.493614 
L 421.89985 -455.162613 
L 440.765364 -449.767498 
L 459.630879 -521.368556 
L 478.496394 -361.811797 
L 497.361908 -370.483717 
L 516.227423 -434.949469 
L 535.092938 -471.056587 
L 553.958452 -497.29971 
L 572.823967 -514.257735 
L 572.823967 -507.421497 
L 572.823967 -507.421497 
L 553.958452 -482.272159 
L 535.092938 -444.039035 
L 516.227423 -404.218229 
L 497.361908 -355.566699 
L 478.496394 -356.177077 
L 459.630879 -519.064159 
L 440.765364 -449.018604 
L 421.89985 -453.637192 
L 403.034335 -346.951444 
L 384.16882 -369.49312 
L 365.303306 -408.709844 
z
" id="m34b9047b84" style="stroke:#156796;"/>
    </defs>
    <g clip-path="url(#p8892feffee)">
     <use style="fill:#156796;stroke:#156796;" x="0" xlink:href="#m34b9047b84" y="864"/>
    </g>
   </g>
   <g id="matplotlib.axis_7">
    <g id="xtick_19">
     <g id="line2d_38">
      <g>
       <use style="stroke:#000000;stroke-width:0.8;" x="365.303306" xlink:href="#mfee49955a5" y="525.769412"/>
      </g>
     </g>
    </g>
    <g id="xtick_20">
     <g id="line2d_39">
      <g>
       <use style="stroke:#000000;stroke-width:0.8;" x="403.034335" xlink:href="#mfee49955a5" y="525.769412"/>
      </g>
     </g>
    </g>
    <g id="xtick_21">
     <g id="line2d_40">
      <g>
       <use style="stroke:#000000;stroke-width:0.8;" x="440.765364" xlink:href="#mfee49955a5" y="525.769412"/>
      </g>
     </g>
    </g>
    <g id="xtick_22">
     <g id="line2d_41">
      <g>
       <use style="stroke:#000000;stroke-width:0.8;" x="478.496394" xlink:href="#mfee49955a5" y="525.769412"/>
      </g>
     </g>
    </g>
    <g id="xtick_23">
     <g id="line2d_42">
      <g>
       <use style="stroke:#000000;stroke-width:0.8;" x="516.227423" xlink:href="#mfee49955a5" y="525.769412"/>
      </g>
     </g>
    </g>
    <g id="xtick_24">
     <g id="line2d_43">
      <g>
       <use style="stroke:#000000;stroke-width:0.8;" x="553.958452" xlink:href="#mfee49955a5" y="525.769412"/>
      </g>
     </g>
    </g>
   </g>
   <g id="matplotlib.axis_8">
    <g id="ytick_20">
     <g id="line2d_44">
      <g>
       <use style="stroke:#000000;stroke-width:0.8;" x="354.927273" xlink:href="#mce4b11e022" y="525.513177"/>
      </g>
     </g>
     <g id="text_26">
      <!-- 200 -->
      <g transform="translate(328.839773 529.312396)scale(0.1 -0.1)">
       <use xlink:href="#DejaVuSans-50"/>
       <use x="63.623047" xlink:href="#DejaVuSans-48"/>
       <use x="127.246094" xlink:href="#DejaVuSans-48"/>
      </g>
     </g>
    </g>
    <g id="ytick_21">
     <g id="line2d_45">
      <g>
       <use style="stroke:#000000;stroke-width:0.8;" x="354.927273" xlink:href="#mce4b11e022" y="497.155479"/>
      </g>
     </g>
     <g id="text_27">
      <!-- 300 -->
      <g transform="translate(328.839773 500.954698)scale(0.1 -0.1)">
       <use xlink:href="#DejaVuSans-51"/>
       <use x="63.623047" xlink:href="#DejaVuSans-48"/>
       <use x="127.246094" xlink:href="#DejaVuSans-48"/>
      </g>
     </g>
    </g>
    <g id="ytick_22">
     <g id="line2d_46">
      <g>
       <use style="stroke:#000000;stroke-width:0.8;" x="354.927273" xlink:href="#mce4b11e022" y="468.797781"/>
      </g>
     </g>
     <g id="text_28">
      <!-- 400 -->
      <g transform="translate(328.839773 472.597)scale(0.1 -0.1)">
       <use xlink:href="#DejaVuSans-52"/>
       <use x="63.623047" xlink:href="#DejaVuSans-48"/>
       <use x="127.246094" xlink:href="#DejaVuSans-48"/>
      </g>
     </g>
    </g>
    <g id="ytick_23">
     <g id="line2d_47">
      <g>
       <use style="stroke:#000000;stroke-width:0.8;" x="354.927273" xlink:href="#mce4b11e022" y="440.440083"/>
      </g>
     </g>
     <g id="text_29">
      <!-- 500 -->
      <g transform="translate(328.839773 444.239302)scale(0.1 -0.1)">
       <use xlink:href="#DejaVuSans-53"/>
       <use x="63.623047" xlink:href="#DejaVuSans-48"/>
       <use x="127.246094" xlink:href="#DejaVuSans-48"/>
      </g>
     </g>
    </g>
    <g id="ytick_24">
     <g id="line2d_48">
      <g>
       <use style="stroke:#000000;stroke-width:0.8;" x="354.927273" xlink:href="#mce4b11e022" y="412.082385"/>
      </g>
     </g>
     <g id="text_30">
      <!-- 600 -->
      <g transform="translate(328.839773 415.881604)scale(0.1 -0.1)">
       <use xlink:href="#DejaVuSans-54"/>
       <use x="63.623047" xlink:href="#DejaVuSans-48"/>
       <use x="127.246094" xlink:href="#DejaVuSans-48"/>
      </g>
     </g>
    </g>
    <g id="ytick_25">
     <g id="line2d_49">
      <g>
       <use style="stroke:#000000;stroke-width:0.8;" x="354.927273" xlink:href="#mce4b11e022" y="383.724687"/>
      </g>
     </g>
     <g id="text_31">
      <!-- 700 -->
      <g transform="translate(328.839773 387.523906)scale(0.1 -0.1)">
       <use xlink:href="#DejaVuSans-55"/>
       <use x="63.623047" xlink:href="#DejaVuSans-48"/>
       <use x="127.246094" xlink:href="#DejaVuSans-48"/>
      </g>
     </g>
    </g>
    <g id="ytick_26">
     <g id="line2d_50">
      <g>
       <use style="stroke:#000000;stroke-width:0.8;" x="354.927273" xlink:href="#mce4b11e022" y="355.366989"/>
      </g>
     </g>
     <g id="text_32">
      <!-- 800 -->
      <g transform="translate(328.839773 359.166208)scale(0.1 -0.1)">
       <use xlink:href="#DejaVuSans-56"/>
       <use x="63.623047" xlink:href="#DejaVuSans-48"/>
       <use x="127.246094" xlink:href="#DejaVuSans-48"/>
      </g>
     </g>
    </g>
    <g id="text_33">
     <!-- Basin outflow (Million $m^3$) -->
     <g transform="translate(322.760085 494.24)rotate(-90)scale(0.1 -0.1)">
      <use transform="translate(0 0.765625)" xlink:href="#DejaVuSans-66"/>
      <use transform="translate(68.603516 0.765625)" xlink:href="#DejaVuSans-97"/>
      <use transform="translate(129.882812 0.765625)" xlink:href="#DejaVuSans-115"/>
      <use transform="translate(181.982422 0.765625)" xlink:href="#DejaVuSans-105"/>
      <use transform="translate(209.765625 0.765625)" xlink:href="#DejaVuSans-110"/>
      <use transform="translate(273.144531 0.765625)" xlink:href="#DejaVuSans-32"/>
      <use transform="translate(304.931641 0.765625)" xlink:href="#DejaVuSans-111"/>
      <use transform="translate(366.113281 0.765625)" xlink:href="#DejaVuSans-117"/>
      <use transform="translate(429.492188 0.765625)" xlink:href="#DejaVuSans-116"/>
      <use transform="translate(468.701172 0.765625)" xlink:href="#DejaVuSans-102"/>
      <use transform="translate(503.90625 0.765625)" xlink:href="#DejaVuSans-108"/>
      <use transform="translate(531.689453 0.765625)" xlink:href="#DejaVuSans-111"/>
      <use transform="translate(592.871094 0.765625)" xlink:href="#DejaVuSans-119"/>
      <use transform="translate(674.658203 0.765625)" xlink:href="#DejaVuSans-32"/>
      <use transform="translate(706.445312 0.765625)" xlink:href="#DejaVuSans-40"/>
      <use transform="translate(745.458984 0.765625)" xlink:href="#DejaVuSans-77"/>
      <use transform="translate(831.738281 0.765625)" xlink:href="#DejaVuSans-105"/>
      <use transform="translate(859.521484 0.765625)" xlink:href="#DejaVuSans-108"/>
      <use transform="translate(887.304688 0.765625)" xlink:href="#DejaVuSans-108"/>
      <use transform="translate(915.087891 0.765625)" xlink:href="#DejaVuSans-105"/>
      <use transform="translate(942.871094 0.765625)" xlink:href="#DejaVuSans-111"/>
      <use transform="translate(1004.052734 0.765625)" xlink:href="#DejaVuSans-110"/>
      <use transform="translate(1067.431641 0.765625)" xlink:href="#DejaVuSans-32"/>
      <use transform="translate(1099.21875 0.765625)" xlink:href="#DejaVuSans-Oblique-109"/>
      <use transform="translate(1201.280755 39.046875)scale(0.7)" xlink:href="#DejaVuSans-51"/>
      <use transform="translate(1248.551263 0.765625)" xlink:href="#DejaVuSans-41"/>
     </g>
    </g>
   </g>
   <g id="patch_18">
    <path d="M 354.927273 525.769412 
L 354.927273 333.910588 
" style="fill:none;stroke:#000000;stroke-linecap:square;stroke-linejoin:miter;stroke-width:0.8;"/>
   </g>
   <g id="patch_19">
    <path d="M 583.2 525.769412 
L 583.2 333.910588 
" style="fill:none;stroke:#000000;stroke-linecap:square;stroke-linejoin:miter;stroke-width:0.8;"/>
   </g>
   <g id="patch_20">
    <path d="M 354.927273 525.769412 
L 583.2 525.769412 
" style="fill:none;stroke:#000000;stroke-linecap:square;stroke-linejoin:miter;stroke-width:0.8;"/>
   </g>
   <g id="patch_21">
    <path d="M 354.927273 333.910588 
L 583.2 333.910588 
" style="fill:none;stroke:#000000;stroke-linecap:square;stroke-linejoin:miter;stroke-width:0.8;"/>
   </g>
   <g id="text_34">
    <!-- 1995 -->
    <g transform="translate(453.793636 327.910588)scale(0.12 -0.12)">
     <use xlink:href="#DejaVuSans-49"/>
     <use x="63.623047" xlink:href="#DejaVuSans-57"/>
     <use x="127.246094" xlink:href="#DejaVuSans-57"/>
     <use x="190.869141" xlink:href="#DejaVuSans-53"/>
    </g>
   </g>
  </g>
  <g id="axes_5">
   <g id="patch_22">
    <path d="M 81 756 
L 309.272727 756 
L 309.272727 564.141176 
L 81 564.141176 
z
" style="fill:#ffffff;"/>
   </g>
   <g id="PolyCollection_5">
    <defs>
     <path d="M 91.376033 -123.284284 
L 91.376033 -126.013345 
L 110.241548 -121.934604 
L 129.107062 -117.431249 
L 147.972577 -126.965861 
L 166.838092 -124.205747 
L 185.703606 -155.568122 
L 204.569121 -245.680019 
L 223.434636 -291.137968 
L 242.30015 -180.558563 
L 261.165665 -185.716282 
L 280.03118 -134.231131 
L 298.896694 -133.891348 
L 298.896694 -127.459783 
L 298.896694 -127.459783 
L 280.03118 -126.012895 
L 261.165665 -169.534984 
L 242.30015 -162.921376 
L 223.434636 -279.049811 
L 204.569121 -242.820445 
L 185.703606 -155.019745 
L 166.838092 -123.939321 
L 147.972577 -126.645205 
L 129.107062 -116.720856 
L 110.241548 -121.15693 
L 91.376033 -123.284284 
z
" id="mafef214034" style="stroke:#156796;"/>
    </defs>
    <g clip-path="url(#p1e9eabf636)">
     <use style="fill:#156796;stroke:#156796;" x="0" xlink:href="#mafef214034" y="864"/>
    </g>
   </g>
   <g id="matplotlib.axis_9">
    <g id="xtick_25">
     <g id="line2d_51">
      <g>
       <use style="stroke:#000000;stroke-width:0.8;" x="91.376033" xlink:href="#mfee49955a5" y="756"/>
      </g>
     </g>
     <g id="text_35">
      <!-- 0 -->
      <g transform="translate(88.194783 770.598438)scale(0.1 -0.1)">
       <use xlink:href="#DejaVuSans-48"/>
      </g>
     </g>
    </g>
    <g id="xtick_26">
     <g id="line2d_52">
      <g>
       <use style="stroke:#000000;stroke-width:0.8;" x="129.107062" xlink:href="#mfee49955a5" y="756"/>
      </g>
     </g>
     <g id="text_36">
      <!-- 2 -->
      <g transform="translate(125.925812 770.598438)scale(0.1 -0.1)">
       <use xlink:href="#DejaVuSans-50"/>
      </g>
     </g>
    </g>
    <g id="xtick_27">
     <g id="line2d_53">
      <g>
       <use style="stroke:#000000;stroke-width:0.8;" x="166.838092" xlink:href="#mfee49955a5" y="756"/>
      </g>
     </g>
     <g id="text_37">
      <!-- 4 -->
      <g transform="translate(163.656842 770.598438)scale(0.1 -0.1)">
       <use xlink:href="#DejaVuSans-52"/>
      </g>
     </g>
    </g>
    <g id="xtick_28">
     <g id="line2d_54">
      <g>
       <use style="stroke:#000000;stroke-width:0.8;" x="204.569121" xlink:href="#mfee49955a5" y="756"/>
      </g>
     </g>
     <g id="text_38">
      <!-- 6 -->
      <g transform="translate(201.387871 770.598438)scale(0.1 -0.1)">
       <use xlink:href="#DejaVuSans-54"/>
      </g>
     </g>
    </g>
    <g id="xtick_29">
     <g id="line2d_55">
      <g>
       <use style="stroke:#000000;stroke-width:0.8;" x="242.30015" xlink:href="#mfee49955a5" y="756"/>
      </g>
     </g>
     <g id="text_39">
      <!-- 8 -->
      <g transform="translate(239.1189 770.598438)scale(0.1 -0.1)">
       <use xlink:href="#DejaVuSans-56"/>
      </g>
     </g>
    </g>
    <g id="xtick_30">
     <g id="line2d_56">
      <g>
       <use style="stroke:#000000;stroke-width:0.8;" x="280.03118" xlink:href="#mfee49955a5" y="756"/>
      </g>
     </g>
     <g id="text_40">
      <!-- 10 -->
      <g transform="translate(273.66868 770.598438)scale(0.1 -0.1)">
       <use xlink:href="#DejaVuSans-49"/>
       <use x="63.623047" xlink:href="#DejaVuSans-48"/>
      </g>
     </g>
    </g>
   </g>
   <g id="matplotlib.axis_10">
    <g id="ytick_27">
     <g id="line2d_57">
      <g>
       <use style="stroke:#000000;stroke-width:0.8;" x="81" xlink:href="#mce4b11e022" y="740.009904"/>
      </g>
     </g>
     <g id="text_41">
      <!-- 200 -->
      <g transform="translate(54.9125 743.809123)scale(0.1 -0.1)">
       <use xlink:href="#DejaVuSans-50"/>
       <use x="63.623047" xlink:href="#DejaVuSans-48"/>
       <use x="127.246094" xlink:href="#DejaVuSans-48"/>
      </g>
     </g>
    </g>
    <g id="ytick_28">
     <g id="line2d_58">
      <g>
       <use style="stroke:#000000;stroke-width:0.8;" x="81" xlink:href="#mce4b11e022" y="703.524318"/>
      </g>
     </g>
     <g id="text_42">
      <!-- 400 -->
      <g transform="translate(54.9125 707.323537)scale(0.1 -0.1)">
       <use xlink:href="#DejaVuSans-52"/>
       <use x="63.623047" xlink:href="#DejaVuSans-48"/>
       <use x="127.246094" xlink:href="#DejaVuSans-48"/>
      </g>
     </g>
    </g>
    <g id="ytick_29">
     <g id="line2d_59">
      <g>
       <use style="stroke:#000000;stroke-width:0.8;" x="81" xlink:href="#mce4b11e022" y="667.038733"/>
      </g>
     </g>
     <g id="text_43">
      <!-- 600 -->
      <g transform="translate(54.9125 670.837952)scale(0.1 -0.1)">
       <use xlink:href="#DejaVuSans-54"/>
       <use x="63.623047" xlink:href="#DejaVuSans-48"/>
       <use x="127.246094" xlink:href="#DejaVuSans-48"/>
      </g>
     </g>
    </g>
    <g id="ytick_30">
     <g id="line2d_60">
      <g>
       <use style="stroke:#000000;stroke-width:0.8;" x="81" xlink:href="#mce4b11e022" y="630.553147"/>
      </g>
     </g>
     <g id="text_44">
      <!-- 800 -->
      <g transform="translate(54.9125 634.352366)scale(0.1 -0.1)">
       <use xlink:href="#DejaVuSans-56"/>
       <use x="63.623047" xlink:href="#DejaVuSans-48"/>
       <use x="127.246094" xlink:href="#DejaVuSans-48"/>
      </g>
     </g>
    </g>
    <g id="ytick_31">
     <g id="line2d_61">
      <g>
       <use style="stroke:#000000;stroke-width:0.8;" x="81" xlink:href="#mce4b11e022" y="594.067562"/>
      </g>
     </g>
     <g id="text_45">
      <!-- 1000 -->
      <g transform="translate(48.55 597.866781)scale(0.1 -0.1)">
       <use xlink:href="#DejaVuSans-49"/>
       <use x="63.623047" xlink:href="#DejaVuSans-48"/>
       <use x="127.246094" xlink:href="#DejaVuSans-48"/>
       <use x="190.869141" xlink:href="#DejaVuSans-48"/>
      </g>
     </g>
    </g>
    <g id="text_46">
     <!-- Basin outflow (Million $m^3$) -->
     <g transform="translate(42.470312 724.470588)rotate(-90)scale(0.1 -0.1)">
      <use transform="translate(0 0.765625)" xlink:href="#DejaVuSans-66"/>
      <use transform="translate(68.603516 0.765625)" xlink:href="#DejaVuSans-97"/>
      <use transform="translate(129.882812 0.765625)" xlink:href="#DejaVuSans-115"/>
      <use transform="translate(181.982422 0.765625)" xlink:href="#DejaVuSans-105"/>
      <use transform="translate(209.765625 0.765625)" xlink:href="#DejaVuSans-110"/>
      <use transform="translate(273.144531 0.765625)" xlink:href="#DejaVuSans-32"/>
      <use transform="translate(304.931641 0.765625)" xlink:href="#DejaVuSans-111"/>
      <use transform="translate(366.113281 0.765625)" xlink:href="#DejaVuSans-117"/>
      <use transform="translate(429.492188 0.765625)" xlink:href="#DejaVuSans-116"/>
      <use transform="translate(468.701172 0.765625)" xlink:href="#DejaVuSans-102"/>
      <use transform="translate(503.90625 0.765625)" xlink:href="#DejaVuSans-108"/>
      <use transform="translate(531.689453 0.765625)" xlink:href="#DejaVuSans-111"/>
      <use transform="translate(592.871094 0.765625)" xlink:href="#DejaVuSans-119"/>
      <use transform="translate(674.658203 0.765625)" xlink:href="#DejaVuSans-32"/>
      <use transform="translate(706.445312 0.765625)" xlink:href="#DejaVuSans-40"/>
      <use transform="translate(745.458984 0.765625)" xlink:href="#DejaVuSans-77"/>
      <use transform="translate(831.738281 0.765625)" xlink:href="#DejaVuSans-105"/>
      <use transform="translate(859.521484 0.765625)" xlink:href="#DejaVuSans-108"/>
      <use transform="translate(887.304688 0.765625)" xlink:href="#DejaVuSans-108"/>
      <use transform="translate(915.087891 0.765625)" xlink:href="#DejaVuSans-105"/>
      <use transform="translate(942.871094 0.765625)" xlink:href="#DejaVuSans-111"/>
      <use transform="translate(1004.052734 0.765625)" xlink:href="#DejaVuSans-110"/>
      <use transform="translate(1067.431641 0.765625)" xlink:href="#DejaVuSans-32"/>
      <use transform="translate(1099.21875 0.765625)" xlink:href="#DejaVuSans-Oblique-109"/>
      <use transform="translate(1201.280755 39.046875)scale(0.7)" xlink:href="#DejaVuSans-51"/>
      <use transform="translate(1248.551263 0.765625)" xlink:href="#DejaVuSans-41"/>
     </g>
    </g>
   </g>
   <g id="patch_23">
    <path d="M 81 756 
L 81 564.141176 
" style="fill:none;stroke:#000000;stroke-linecap:square;stroke-linejoin:miter;stroke-width:0.8;"/>
   </g>
   <g id="patch_24">
    <path d="M 309.272727 756 
L 309.272727 564.141176 
" style="fill:none;stroke:#000000;stroke-linecap:square;stroke-linejoin:miter;stroke-width:0.8;"/>
   </g>
   <g id="patch_25">
    <path d="M 81 756 
L 309.272727 756 
" style="fill:none;stroke:#000000;stroke-linecap:square;stroke-linejoin:miter;stroke-width:0.8;"/>
   </g>
   <g id="patch_26">
    <path d="M 81 564.141176 
L 309.272727 564.141176 
" style="fill:none;stroke:#000000;stroke-linecap:square;stroke-linejoin:miter;stroke-width:0.8;"/>
   </g>
   <g id="text_47">
    <!-- 1996 -->
    <g transform="translate(179.866364 558.141176)scale(0.12 -0.12)">
     <use xlink:href="#DejaVuSans-49"/>
     <use x="63.623047" xlink:href="#DejaVuSans-57"/>
     <use x="127.246094" xlink:href="#DejaVuSans-57"/>
     <use x="190.869141" xlink:href="#DejaVuSans-54"/>
    </g>
   </g>
  </g>
  <g id="axes_6">
   <g id="patch_27">
    <path d="M 354.927273 756 
L 583.2 756 
L 583.2 564.141176 
L 354.927273 564.141176 
z
" style="fill:#ffffff;"/>
   </g>
   <g id="PolyCollection_6">
    <defs>
     <path d="M 365.303306 -177.638669 
L 365.303306 -224.99126 
L 384.16882 -291.137968 
L 403.034335 -218.47302 
L 421.89985 -236.604043 
L 440.765364 -190.139909 
L 459.630879 -217.868435 
L 478.496394 -261.569685 
L 497.361908 -254.750236 
L 516.227423 -272.270175 
L 535.092938 -194.543189 
L 553.958452 -196.382945 
L 572.823967 -196.58664 
L 572.823967 -141.354951 
L 572.823967 -141.354951 
L 553.958452 -129.657656 
L 535.092938 -116.720856 
L 516.227423 -201.418979 
L 497.361908 -238.090584 
L 478.496394 -235.19118 
L 459.630879 -215.131554 
L 440.765364 -187.446367 
L 421.89985 -232.601653 
L 403.034335 -202.352942 
L 384.16882 -264.945822 
L 365.303306 -177.638669 
z
" id="m22ae4910ea" style="stroke:#156796;"/>
    </defs>
    <g clip-path="url(#pe246bf7d55)">
     <use style="fill:#156796;stroke:#156796;" x="0" xlink:href="#m22ae4910ea" y="864"/>
    </g>
   </g>
   <g id="matplotlib.axis_11">
    <g id="xtick_31">
     <g id="line2d_62">
      <g>
       <use style="stroke:#000000;stroke-width:0.8;" x="365.303306" xlink:href="#mfee49955a5" y="756"/>
      </g>
     </g>
     <g id="text_48">
      <!-- 0 -->
      <g transform="translate(362.122056 770.598438)scale(0.1 -0.1)">
       <use xlink:href="#DejaVuSans-48"/>
      </g>
     </g>
    </g>
    <g id="xtick_32">
     <g id="line2d_63">
      <g>
       <use style="stroke:#000000;stroke-width:0.8;" x="403.034335" xlink:href="#mfee49955a5" y="756"/>
      </g>
     </g>
     <g id="text_49">
      <!-- 2 -->
      <g transform="translate(399.853085 770.598438)scale(0.1 -0.1)">
       <use xlink:href="#DejaVuSans-50"/>
      </g>
     </g>
    </g>
    <g id="xtick_33">
     <g id="line2d_64">
      <g>
       <use style="stroke:#000000;stroke-width:0.8;" x="440.765364" xlink:href="#mfee49955a5" y="756"/>
      </g>
     </g>
     <g id="text_50">
      <!-- 4 -->
      <g transform="translate(437.584114 770.598438)scale(0.1 -0.1)">
       <use xlink:href="#DejaVuSans-52"/>
      </g>
     </g>
    </g>
    <g id="xtick_34">
     <g id="line2d_65">
      <g>
       <use style="stroke:#000000;stroke-width:0.8;" x="478.496394" xlink:href="#mfee49955a5" y="756"/>
      </g>
     </g>
     <g id="text_51">
      <!-- 6 -->
      <g transform="translate(475.315144 770.598438)scale(0.1 -0.1)">
       <use xlink:href="#DejaVuSans-54"/>
      </g>
     </g>
    </g>
    <g id="xtick_35">
     <g id="line2d_66">
      <g>
       <use style="stroke:#000000;stroke-width:0.8;" x="516.227423" xlink:href="#mfee49955a5" y="756"/>
      </g>
     </g>
     <g id="text_52">
      <!-- 8 -->
      <g transform="translate(513.046173 770.598438)scale(0.1 -0.1)">
       <use xlink:href="#DejaVuSans-56"/>
      </g>
     </g>
    </g>
    <g id="xtick_36">
     <g id="line2d_67">
      <g>
       <use style="stroke:#000000;stroke-width:0.8;" x="553.958452" xlink:href="#mfee49955a5" y="756"/>
      </g>
     </g>
     <g id="text_53">
      <!-- 10 -->
      <g transform="translate(547.595952 770.598438)scale(0.1 -0.1)">
       <use xlink:href="#DejaVuSans-49"/>
       <use x="63.623047" xlink:href="#DejaVuSans-48"/>
      </g>
     </g>
    </g>
   </g>
   <g id="matplotlib.axis_12">
    <g id="ytick_32">
     <g id="line2d_68">
      <g>
       <use style="stroke:#000000;stroke-width:0.8;" x="354.927273" xlink:href="#mce4b11e022" y="748.256323"/>
      </g>
     </g>
     <g id="text_54">
      <!-- 80 -->
      <g transform="translate(335.202273 752.055541)scale(0.1 -0.1)">
       <use xlink:href="#DejaVuSans-56"/>
       <use x="63.623047" xlink:href="#DejaVuSans-48"/>
      </g>
     </g>
    </g>
    <g id="ytick_33">
     <g id="line2d_69">
      <g>
       <use style="stroke:#000000;stroke-width:0.8;" x="354.927273" xlink:href="#mce4b11e022" y="713.120525"/>
      </g>
     </g>
     <g id="text_55">
      <!-- 100 -->
      <g transform="translate(328.839773 716.919744)scale(0.1 -0.1)">
       <use xlink:href="#DejaVuSans-49"/>
       <use x="63.623047" xlink:href="#DejaVuSans-48"/>
       <use x="127.246094" xlink:href="#DejaVuSans-48"/>
      </g>
     </g>
    </g>
    <g id="ytick_34">
     <g id="line2d_70">
      <g>
       <use style="stroke:#000000;stroke-width:0.8;" x="354.927273" xlink:href="#mce4b11e022" y="677.984728"/>
      </g>
     </g>
     <g id="text_56">
      <!-- 120 -->
      <g transform="translate(328.839773 681.783947)scale(0.1 -0.1)">
       <use xlink:href="#DejaVuSans-49"/>
       <use x="63.623047" xlink:href="#DejaVuSans-50"/>
       <use x="127.246094" xlink:href="#DejaVuSans-48"/>
      </g>
     </g>
    </g>
    <g id="ytick_35">
     <g id="line2d_71">
      <g>
       <use style="stroke:#000000;stroke-width:0.8;" x="354.927273" xlink:href="#mce4b11e022" y="642.848931"/>
      </g>
     </g>
     <g id="text_57">
      <!-- 140 -->
      <g transform="translate(328.839773 646.64815)scale(0.1 -0.1)">
       <use xlink:href="#DejaVuSans-49"/>
       <use x="63.623047" xlink:href="#DejaVuSans-52"/>
       <use x="127.246094" xlink:href="#DejaVuSans-48"/>
      </g>
     </g>
    </g>
    <g id="ytick_36">
     <g id="line2d_72">
      <g>
       <use style="stroke:#000000;stroke-width:0.8;" x="354.927273" xlink:href="#mce4b11e022" y="607.713134"/>
      </g>
     </g>
     <g id="text_58">
      <!-- 160 -->
      <g transform="translate(328.839773 611.512353)scale(0.1 -0.1)">
       <use xlink:href="#DejaVuSans-49"/>
       <use x="63.623047" xlink:href="#DejaVuSans-54"/>
       <use x="127.246094" xlink:href="#DejaVuSans-48"/>
      </g>
     </g>
    </g>
    <g id="ytick_37">
     <g id="line2d_73">
      <g>
       <use style="stroke:#000000;stroke-width:0.8;" x="354.927273" xlink:href="#mce4b11e022" y="572.577337"/>
      </g>
     </g>
     <g id="text_59">
      <!-- 180 -->
      <g transform="translate(328.839773 576.376556)scale(0.1 -0.1)">
       <use xlink:href="#DejaVuSans-49"/>
       <use x="63.623047" xlink:href="#DejaVuSans-56"/>
       <use x="127.246094" xlink:href="#DejaVuSans-48"/>
      </g>
     </g>
    </g>
    <g id="text_60">
     <!-- Basin outflow (Million $m^3$) -->
     <g transform="translate(322.760085 724.470588)rotate(-90)scale(0.1 -0.1)">
      <use transform="translate(0 0.765625)" xlink:href="#DejaVuSans-66"/>
      <use transform="translate(68.603516 0.765625)" xlink:href="#DejaVuSans-97"/>
      <use transform="translate(129.882812 0.765625)" xlink:href="#DejaVuSans-115"/>
      <use transform="translate(181.982422 0.765625)" xlink:href="#DejaVuSans-105"/>
      <use transform="translate(209.765625 0.765625)" xlink:href="#DejaVuSans-110"/>
      <use transform="translate(273.144531 0.765625)" xlink:href="#DejaVuSans-32"/>
      <use transform="translate(304.931641 0.765625)" xlink:href="#DejaVuSans-111"/>
      <use transform="translate(366.113281 0.765625)" xlink:href="#DejaVuSans-117"/>
      <use transform="translate(429.492188 0.765625)" xlink:href="#DejaVuSans-116"/>
      <use transform="translate(468.701172 0.765625)" xlink:href="#DejaVuSans-102"/>
      <use transform="translate(503.90625 0.765625)" xlink:href="#DejaVuSans-108"/>
      <use transform="translate(531.689453 0.765625)" xlink:href="#DejaVuSans-111"/>
      <use transform="translate(592.871094 0.765625)" xlink:href="#DejaVuSans-119"/>
      <use transform="translate(674.658203 0.765625)" xlink:href="#DejaVuSans-32"/>
      <use transform="translate(706.445312 0.765625)" xlink:href="#DejaVuSans-40"/>
      <use transform="translate(745.458984 0.765625)" xlink:href="#DejaVuSans-77"/>
      <use transform="translate(831.738281 0.765625)" xlink:href="#DejaVuSans-105"/>
      <use transform="translate(859.521484 0.765625)" xlink:href="#DejaVuSans-108"/>
      <use transform="translate(887.304688 0.765625)" xlink:href="#DejaVuSans-108"/>
      <use transform="translate(915.087891 0.765625)" xlink:href="#DejaVuSans-105"/>
      <use transform="translate(942.871094 0.765625)" xlink:href="#DejaVuSans-111"/>
      <use transform="translate(1004.052734 0.765625)" xlink:href="#DejaVuSans-110"/>
      <use transform="translate(1067.431641 0.765625)" xlink:href="#DejaVuSans-32"/>
      <use transform="translate(1099.21875 0.765625)" xlink:href="#DejaVuSans-Oblique-109"/>
      <use transform="translate(1201.280755 39.046875)scale(0.7)" xlink:href="#DejaVuSans-51"/>
      <use transform="translate(1248.551263 0.765625)" xlink:href="#DejaVuSans-41"/>
     </g>
    </g>
   </g>
   <g id="patch_28">
    <path d="M 354.927273 756 
L 354.927273 564.141176 
" style="fill:none;stroke:#000000;stroke-linecap:square;stroke-linejoin:miter;stroke-width:0.8;"/>
   </g>
   <g id="patch_29">
    <path d="M 583.2 756 
L 583.2 564.141176 
" style="fill:none;stroke:#000000;stroke-linecap:square;stroke-linejoin:miter;stroke-width:0.8;"/>
   </g>
   <g id="patch_30">
    <path d="M 354.927273 756 
L 583.2 756 
" style="fill:none;stroke:#000000;stroke-linecap:square;stroke-linejoin:miter;stroke-width:0.8;"/>
   </g>
   <g id="patch_31">
    <path d="M 354.927273 564.141176 
L 583.2 564.141176 
" style="fill:none;stroke:#000000;stroke-linecap:square;stroke-linejoin:miter;stroke-width:0.8;"/>
   </g>
   <g id="text_61">
    <!-- 1997 -->
    <g transform="translate(453.793636 558.141176)scale(0.12 -0.12)">
     <use xlink:href="#DejaVuSans-49"/>
     <use x="63.623047" xlink:href="#DejaVuSans-57"/>
     <use x="127.246094" xlink:href="#DejaVuSans-57"/>
     <use x="190.869141" xlink:href="#DejaVuSans-55"/>
    </g>
   </g>
  </g>
 </g>
 <defs>
  <clipPath id="p29943d2d9e">
   <rect height="191.858824" width="228.272727" x="81" y="103.68"/>
  </clipPath>
  <clipPath id="p0603d8045b">
   <rect height="191.858824" width="228.272727" x="354.927273" y="103.68"/>
  </clipPath>
  <clipPath id="pcd5f71cdca">
   <rect height="191.858824" width="228.272727" x="81" y="333.910588"/>
  </clipPath>
  <clipPath id="p8892feffee">
   <rect height="191.858824" width="228.272727" x="354.927273" y="333.910588"/>
  </clipPath>
  <clipPath id="p1e9eabf636">
   <rect height="191.858824" width="228.272727" x="81" y="564.141176"/>
  </clipPath>
  <clipPath id="pe246bf7d55">
   <rect height="191.858824" width="228.272727" x="354.927273" y="564.141176"/>
  </clipPath>
 </defs>
</svg>
