<?xml version="1.0" encoding="utf-8" standalone="no"?>
<!DOCTYPE svg PUBLIC "-//W3C//DTD SVG 1.1//EN"
  "http://www.w3.org/Graphics/SVG/1.1/DTD/svg11.dtd">
<!-- Created with matplotlib (https://matplotlib.org/) -->
<svg height="648pt" version="1.1" viewBox="0 0 432 648" width="432pt" xmlns="http://www.w3.org/2000/svg" xmlns:xlink="http://www.w3.org/1999/xlink">
 <metadata>
  <rdf:RDF xmlns:cc="http://creativecommons.org/ns#" xmlns:dc="http://purl.org/dc/elements/1.1/" xmlns:rdf="http://www.w3.org/1999/02/22-rdf-syntax-ns#">
   <cc:Work>
    <dc:type rdf:resource="http://purl.org/dc/dcmitype/StillImage"/>
    <dc:date>2023-03-16T15:09:39.179092</dc:date>
    <dc:format>image/svg+xml</dc:format>
    <dc:creator>
     <cc:Agent>
      <dc:title>Matplotlib v3.3.4, https://matplotlib.org/</dc:title>
     </cc:Agent>
    </dc:creator>
   </cc:Work>
  </rdf:RDF>
 </metadata>
 <defs>
  <style type="text/css">*{stroke-linecap:butt;stroke-linejoin:round;}</style>
 </defs>
 <g id="figure_1">
  <g id="patch_1">
   <path d="M 0 648 
L 432 648 
L 432 0 
L 0 0 
z
" style="fill:none;"/>
  </g>
  <g id="axes_1">
   <g id="patch_2">
    <path d="M 54 448.396364 
L 388.8 448.396364 
L 388.8 77.76 
L 54 77.76 
z
" style="fill:#ffffff;"/>
   </g>
   <g id="patch_3">
    <path clip-path="url(#p5e73871cd8)" d="M 69.218182 448.396364 
L 69.218182 77.76 
L 98.205195 77.76 
L 98.205195 448.396364 
z
" style="fill:#ee9b00;stroke:#ee9b00;stroke-linejoin:miter;"/>
   </g>
   <g id="patch_4">
    <path clip-path="url(#p5e73871cd8)" d="M 72.116883 448.396364 
L 72.116883 77.76 
L 101.103896 77.76 
L 101.103896 448.396364 
z
" style="fill:#ee9b00;stroke:#ee9b00;stroke-linejoin:miter;"/>
   </g>
   <g id="patch_5">
    <path clip-path="url(#p5e73871cd8)" d="M 75.015584 448.396364 
L 75.015584 77.76 
L 104.002597 77.76 
L 104.002597 448.396364 
z
" style="fill:#ee9b00;stroke:#ee9b00;stroke-linejoin:miter;"/>
   </g>
   <g id="patch_6">
    <path clip-path="url(#p5e73871cd8)" d="M 77.914286 448.396364 
L 77.914286 77.76 
L 106.901299 77.76 
L 106.901299 448.396364 
z
" style="fill:#ee9b00;stroke:#ee9b00;stroke-linejoin:miter;"/>
   </g>
   <g id="patch_7">
    <path clip-path="url(#p5e73871cd8)" d="M 80.812987 448.396364 
L 80.812987 77.76 
L 109.8 77.76 
L 109.8 448.396364 
z
" style="fill:#ee9b00;stroke:#ee9b00;stroke-linejoin:miter;"/>
   </g>
   <g id="patch_8">
    <path clip-path="url(#p5e73871cd8)" d="M 150.381818 448.396364 
L 150.381818 77.76 
L 179.368831 77.76 
L 179.368831 448.396364 
z
" style="fill:#ee9b00;stroke:#ee9b00;stroke-linejoin:miter;"/>
   </g>
   <g id="patch_9">
    <path clip-path="url(#p5e73871cd8)" d="M 321.405195 448.396364 
L 321.405195 77.76 
L 350.392208 77.76 
L 350.392208 448.396364 
z
" style="fill:#ee9b00;stroke:#ee9b00;stroke-linejoin:miter;"/>
   </g>
   <g id="patch_10">
    <path clip-path="url(#p5e73871cd8)" d="M 324.303896 448.396364 
L 324.303896 77.76 
L 353.290909 77.76 
L 353.290909 448.396364 
z
" style="fill:#ee9b00;stroke:#ee9b00;stroke-linejoin:miter;"/>
   </g>
   <g id="matplotlib.axis_1">
    <g id="xtick_1">
     <g id="line2d_1">
      <defs>
       <path d="M 0 0 
L 0 3.5 
" id="m038a90e969" style="stroke:#000000;stroke-width:0.8;"/>
      </defs>
      <g>
       <use style="stroke:#000000;stroke-width:0.8;" x="69.218182" xlink:href="#m038a90e969" y="448.396364"/>
      </g>
     </g>
     <g id="text_1">
      <!-- 0 -->
      <g transform="translate(64.764432 466.034176)scale(0.14 -0.14)">
       <defs>
        <path d="M 31.78125 66.40625 
Q 24.171875 66.40625 20.328125 58.90625 
Q 16.5 51.421875 16.5 36.375 
Q 16.5 21.390625 20.328125 13.890625 
Q 24.171875 6.390625 31.78125 6.390625 
Q 39.453125 6.390625 43.28125 13.890625 
Q 47.125 21.390625 47.125 36.375 
Q 47.125 51.421875 43.28125 58.90625 
Q 39.453125 66.40625 31.78125 66.40625 
z
M 31.78125 74.21875 
Q 44.046875 74.21875 50.515625 64.515625 
Q 56.984375 54.828125 56.984375 36.375 
Q 56.984375 17.96875 50.515625 8.265625 
Q 44.046875 -1.421875 31.78125 -1.421875 
Q 19.53125 -1.421875 13.0625 8.265625 
Q 6.59375 17.96875 6.59375 36.375 
Q 6.59375 54.828125 13.0625 64.515625 
Q 19.53125 74.21875 31.78125 74.21875 
z
" id="DejaVuSans-48"/>
       </defs>
       <use xlink:href="#DejaVuSans-48"/>
      </g>
     </g>
    </g>
    <g id="xtick_2">
     <g id="line2d_2">
      <g>
       <use style="stroke:#000000;stroke-width:0.8;" x="127.192208" xlink:href="#m038a90e969" y="448.396364"/>
      </g>
     </g>
     <g id="text_2">
      <!-- 20 -->
      <g transform="translate(118.284708 466.034176)scale(0.14 -0.14)">
       <defs>
        <path d="M 19.1875 8.296875 
L 53.609375 8.296875 
L 53.609375 0 
L 7.328125 0 
L 7.328125 8.296875 
Q 12.9375 14.109375 22.625 23.890625 
Q 32.328125 33.6875 34.8125 36.53125 
Q 39.546875 41.84375 41.421875 45.53125 
Q 43.3125 49.21875 43.3125 52.78125 
Q 43.3125 58.59375 39.234375 62.25 
Q 35.15625 65.921875 28.609375 65.921875 
Q 23.96875 65.921875 18.8125 64.3125 
Q 13.671875 62.703125 7.8125 59.421875 
L 7.8125 69.390625 
Q 13.765625 71.78125 18.9375 73 
Q 24.125 74.21875 28.421875 74.21875 
Q 39.75 74.21875 46.484375 68.546875 
Q 53.21875 62.890625 53.21875 53.421875 
Q 53.21875 48.921875 51.53125 44.890625 
Q 49.859375 40.875 45.40625 35.40625 
Q 44.1875 33.984375 37.640625 27.21875 
Q 31.109375 20.453125 19.1875 8.296875 
z
" id="DejaVuSans-50"/>
       </defs>
       <use xlink:href="#DejaVuSans-50"/>
       <use x="63.623047" xlink:href="#DejaVuSans-48"/>
      </g>
     </g>
    </g>
    <g id="xtick_3">
     <g id="line2d_3">
      <g>
       <use style="stroke:#000000;stroke-width:0.8;" x="185.166234" xlink:href="#m038a90e969" y="448.396364"/>
      </g>
     </g>
     <g id="text_3">
      <!-- 40 -->
      <g transform="translate(176.258734 466.034176)scale(0.14 -0.14)">
       <defs>
        <path d="M 37.796875 64.3125 
L 12.890625 25.390625 
L 37.796875 25.390625 
z
M 35.203125 72.90625 
L 47.609375 72.90625 
L 47.609375 25.390625 
L 58.015625 25.390625 
L 58.015625 17.1875 
L 47.609375 17.1875 
L 47.609375 0 
L 37.796875 0 
L 37.796875 17.1875 
L 4.890625 17.1875 
L 4.890625 26.703125 
z
" id="DejaVuSans-52"/>
       </defs>
       <use xlink:href="#DejaVuSans-52"/>
       <use x="63.623047" xlink:href="#DejaVuSans-48"/>
      </g>
     </g>
    </g>
    <g id="xtick_4">
     <g id="line2d_4">
      <g>
       <use style="stroke:#000000;stroke-width:0.8;" x="243.14026" xlink:href="#m038a90e969" y="448.396364"/>
      </g>
     </g>
     <g id="text_4">
      <!-- 60 -->
      <g transform="translate(234.23276 466.034176)scale(0.14 -0.14)">
       <defs>
        <path d="M 33.015625 40.375 
Q 26.375 40.375 22.484375 35.828125 
Q 18.609375 31.296875 18.609375 23.390625 
Q 18.609375 15.53125 22.484375 10.953125 
Q 26.375 6.390625 33.015625 6.390625 
Q 39.65625 6.390625 43.53125 10.953125 
Q 47.40625 15.53125 47.40625 23.390625 
Q 47.40625 31.296875 43.53125 35.828125 
Q 39.65625 40.375 33.015625 40.375 
z
M 52.59375 71.296875 
L 52.59375 62.3125 
Q 48.875 64.0625 45.09375 64.984375 
Q 41.3125 65.921875 37.59375 65.921875 
Q 27.828125 65.921875 22.671875 59.328125 
Q 17.53125 52.734375 16.796875 39.40625 
Q 19.671875 43.65625 24.015625 45.921875 
Q 28.375 48.1875 33.59375 48.1875 
Q 44.578125 48.1875 50.953125 41.515625 
Q 57.328125 34.859375 57.328125 23.390625 
Q 57.328125 12.15625 50.6875 5.359375 
Q 44.046875 -1.421875 33.015625 -1.421875 
Q 20.359375 -1.421875 13.671875 8.265625 
Q 6.984375 17.96875 6.984375 36.375 
Q 6.984375 53.65625 15.1875 63.9375 
Q 23.390625 74.21875 37.203125 74.21875 
Q 40.921875 74.21875 44.703125 73.484375 
Q 48.484375 72.75 52.59375 71.296875 
z
" id="DejaVuSans-54"/>
       </defs>
       <use xlink:href="#DejaVuSans-54"/>
       <use x="63.623047" xlink:href="#DejaVuSans-48"/>
      </g>
     </g>
    </g>
    <g id="xtick_5">
     <g id="line2d_5">
      <g>
       <use style="stroke:#000000;stroke-width:0.8;" x="301.114286" xlink:href="#m038a90e969" y="448.396364"/>
      </g>
     </g>
     <g id="text_5">
      <!-- 80 -->
      <g transform="translate(292.206786 466.034176)scale(0.14 -0.14)">
       <defs>
        <path d="M 31.78125 34.625 
Q 24.75 34.625 20.71875 30.859375 
Q 16.703125 27.09375 16.703125 20.515625 
Q 16.703125 13.921875 20.71875 10.15625 
Q 24.75 6.390625 31.78125 6.390625 
Q 38.8125 6.390625 42.859375 10.171875 
Q 46.921875 13.96875 46.921875 20.515625 
Q 46.921875 27.09375 42.890625 30.859375 
Q 38.875 34.625 31.78125 34.625 
z
M 21.921875 38.8125 
Q 15.578125 40.375 12.03125 44.71875 
Q 8.5 49.078125 8.5 55.328125 
Q 8.5 64.0625 14.71875 69.140625 
Q 20.953125 74.21875 31.78125 74.21875 
Q 42.671875 74.21875 48.875 69.140625 
Q 55.078125 64.0625 55.078125 55.328125 
Q 55.078125 49.078125 51.53125 44.71875 
Q 48 40.375 41.703125 38.8125 
Q 48.828125 37.15625 52.796875 32.3125 
Q 56.78125 27.484375 56.78125 20.515625 
Q 56.78125 9.90625 50.3125 4.234375 
Q 43.84375 -1.421875 31.78125 -1.421875 
Q 19.734375 -1.421875 13.25 4.234375 
Q 6.78125 9.90625 6.78125 20.515625 
Q 6.78125 27.484375 10.78125 32.3125 
Q 14.796875 37.15625 21.921875 38.8125 
z
M 18.3125 54.390625 
Q 18.3125 48.734375 21.84375 45.5625 
Q 25.390625 42.390625 31.78125 42.390625 
Q 38.140625 42.390625 41.71875 45.5625 
Q 45.3125 48.734375 45.3125 54.390625 
Q 45.3125 60.0625 41.71875 63.234375 
Q 38.140625 66.40625 31.78125 66.40625 
Q 25.390625 66.40625 21.84375 63.234375 
Q 18.3125 60.0625 18.3125 54.390625 
z
" id="DejaVuSans-56"/>
       </defs>
       <use xlink:href="#DejaVuSans-56"/>
       <use x="63.623047" xlink:href="#DejaVuSans-48"/>
      </g>
     </g>
    </g>
    <g id="xtick_6">
     <g id="line2d_6">
      <g>
       <use style="stroke:#000000;stroke-width:0.8;" x="359.088312" xlink:href="#m038a90e969" y="448.396364"/>
      </g>
     </g>
     <g id="text_6">
      <!-- 100 -->
      <g transform="translate(345.727062 466.034176)scale(0.14 -0.14)">
       <defs>
        <path d="M 12.40625 8.296875 
L 28.515625 8.296875 
L 28.515625 63.921875 
L 10.984375 60.40625 
L 10.984375 69.390625 
L 28.421875 72.90625 
L 38.28125 72.90625 
L 38.28125 8.296875 
L 54.390625 8.296875 
L 54.390625 0 
L 12.40625 0 
z
" id="DejaVuSans-49"/>
       </defs>
       <use xlink:href="#DejaVuSans-49"/>
       <use x="63.623047" xlink:href="#DejaVuSans-48"/>
       <use x="127.246094" xlink:href="#DejaVuSans-48"/>
      </g>
     </g>
    </g>
    <g id="text_7">
     <!-- Year in realization -->
     <g transform="translate(150.27875 485.103239)scale(0.16 -0.16)">
      <defs>
       <path d="M -0.203125 72.90625 
L 10.40625 72.90625 
L 30.609375 42.921875 
L 50.6875 72.90625 
L 61.28125 72.90625 
L 35.5 34.71875 
L 35.5 0 
L 25.59375 0 
L 25.59375 34.71875 
z
" id="DejaVuSans-89"/>
       <path d="M 56.203125 29.59375 
L 56.203125 25.203125 
L 14.890625 25.203125 
Q 15.484375 15.921875 20.484375 11.0625 
Q 25.484375 6.203125 34.421875 6.203125 
Q 39.59375 6.203125 44.453125 7.46875 
Q 49.3125 8.734375 54.109375 11.28125 
L 54.109375 2.78125 
Q 49.265625 0.734375 44.1875 -0.34375 
Q 39.109375 -1.421875 33.890625 -1.421875 
Q 20.796875 -1.421875 13.15625 6.1875 
Q 5.515625 13.8125 5.515625 26.8125 
Q 5.515625 40.234375 12.765625 48.109375 
Q 20.015625 56 32.328125 56 
Q 43.359375 56 49.78125 48.890625 
Q 56.203125 41.796875 56.203125 29.59375 
z
M 47.21875 32.234375 
Q 47.125 39.59375 43.09375 43.984375 
Q 39.0625 48.390625 32.421875 48.390625 
Q 24.90625 48.390625 20.390625 44.140625 
Q 15.875 39.890625 15.1875 32.171875 
z
" id="DejaVuSans-101"/>
       <path d="M 34.28125 27.484375 
Q 23.390625 27.484375 19.1875 25 
Q 14.984375 22.515625 14.984375 16.5 
Q 14.984375 11.71875 18.140625 8.90625 
Q 21.296875 6.109375 26.703125 6.109375 
Q 34.1875 6.109375 38.703125 11.40625 
Q 43.21875 16.703125 43.21875 25.484375 
L 43.21875 27.484375 
z
M 52.203125 31.203125 
L 52.203125 0 
L 43.21875 0 
L 43.21875 8.296875 
Q 40.140625 3.328125 35.546875 0.953125 
Q 30.953125 -1.421875 24.3125 -1.421875 
Q 15.921875 -1.421875 10.953125 3.296875 
Q 6 8.015625 6 15.921875 
Q 6 25.140625 12.171875 29.828125 
Q 18.359375 34.515625 30.609375 34.515625 
L 43.21875 34.515625 
L 43.21875 35.40625 
Q 43.21875 41.609375 39.140625 45 
Q 35.0625 48.390625 27.6875 48.390625 
Q 23 48.390625 18.546875 47.265625 
Q 14.109375 46.140625 10.015625 43.890625 
L 10.015625 52.203125 
Q 14.9375 54.109375 19.578125 55.046875 
Q 24.21875 56 28.609375 56 
Q 40.484375 56 46.34375 49.84375 
Q 52.203125 43.703125 52.203125 31.203125 
z
" id="DejaVuSans-97"/>
       <path d="M 41.109375 46.296875 
Q 39.59375 47.171875 37.8125 47.578125 
Q 36.03125 48 33.890625 48 
Q 26.265625 48 22.1875 43.046875 
Q 18.109375 38.09375 18.109375 28.8125 
L 18.109375 0 
L 9.078125 0 
L 9.078125 54.6875 
L 18.109375 54.6875 
L 18.109375 46.1875 
Q 20.953125 51.171875 25.484375 53.578125 
Q 30.03125 56 36.53125 56 
Q 37.453125 56 38.578125 55.875 
Q 39.703125 55.765625 41.0625 55.515625 
z
" id="DejaVuSans-114"/>
       <path id="DejaVuSans-32"/>
       <path d="M 9.421875 54.6875 
L 18.40625 54.6875 
L 18.40625 0 
L 9.421875 0 
z
M 9.421875 75.984375 
L 18.40625 75.984375 
L 18.40625 64.59375 
L 9.421875 64.59375 
z
" id="DejaVuSans-105"/>
       <path d="M 54.890625 33.015625 
L 54.890625 0 
L 45.90625 0 
L 45.90625 32.71875 
Q 45.90625 40.484375 42.875 44.328125 
Q 39.84375 48.1875 33.796875 48.1875 
Q 26.515625 48.1875 22.3125 43.546875 
Q 18.109375 38.921875 18.109375 30.90625 
L 18.109375 0 
L 9.078125 0 
L 9.078125 54.6875 
L 18.109375 54.6875 
L 18.109375 46.1875 
Q 21.34375 51.125 25.703125 53.5625 
Q 30.078125 56 35.796875 56 
Q 45.21875 56 50.046875 50.171875 
Q 54.890625 44.34375 54.890625 33.015625 
z
" id="DejaVuSans-110"/>
       <path d="M 9.421875 75.984375 
L 18.40625 75.984375 
L 18.40625 0 
L 9.421875 0 
z
" id="DejaVuSans-108"/>
       <path d="M 5.515625 54.6875 
L 48.1875 54.6875 
L 48.1875 46.484375 
L 14.40625 7.171875 
L 48.1875 7.171875 
L 48.1875 0 
L 4.296875 0 
L 4.296875 8.203125 
L 38.09375 47.515625 
L 5.515625 47.515625 
z
" id="DejaVuSans-122"/>
       <path d="M 18.3125 70.21875 
L 18.3125 54.6875 
L 36.8125 54.6875 
L 36.8125 47.703125 
L 18.3125 47.703125 
L 18.3125 18.015625 
Q 18.3125 11.328125 20.140625 9.421875 
Q 21.96875 7.515625 27.59375 7.515625 
L 36.8125 7.515625 
L 36.8125 0 
L 27.59375 0 
Q 17.1875 0 13.234375 3.875 
Q 9.28125 7.765625 9.28125 18.015625 
L 9.28125 47.703125 
L 2.6875 47.703125 
L 2.6875 54.6875 
L 9.28125 54.6875 
L 9.28125 70.21875 
z
" id="DejaVuSans-116"/>
       <path d="M 30.609375 48.390625 
Q 23.390625 48.390625 19.1875 42.75 
Q 14.984375 37.109375 14.984375 27.296875 
Q 14.984375 17.484375 19.15625 11.84375 
Q 23.34375 6.203125 30.609375 6.203125 
Q 37.796875 6.203125 41.984375 11.859375 
Q 46.1875 17.53125 46.1875 27.296875 
Q 46.1875 37.015625 41.984375 42.703125 
Q 37.796875 48.390625 30.609375 48.390625 
z
M 30.609375 56 
Q 42.328125 56 49.015625 48.375 
Q 55.71875 40.765625 55.71875 27.296875 
Q 55.71875 13.875 49.015625 6.21875 
Q 42.328125 -1.421875 30.609375 -1.421875 
Q 18.84375 -1.421875 12.171875 6.21875 
Q 5.515625 13.875 5.515625 27.296875 
Q 5.515625 40.765625 12.171875 48.375 
Q 18.84375 56 30.609375 56 
z
" id="DejaVuSans-111"/>
      </defs>
      <use xlink:href="#DejaVuSans-89"/>
      <use x="47.833984" xlink:href="#DejaVuSans-101"/>
      <use x="109.357422" xlink:href="#DejaVuSans-97"/>
      <use x="170.636719" xlink:href="#DejaVuSans-114"/>
      <use x="211.75" xlink:href="#DejaVuSans-32"/>
      <use x="243.537109" xlink:href="#DejaVuSans-105"/>
      <use x="271.320312" xlink:href="#DejaVuSans-110"/>
      <use x="334.699219" xlink:href="#DejaVuSans-32"/>
      <use x="366.486328" xlink:href="#DejaVuSans-114"/>
      <use x="405.349609" xlink:href="#DejaVuSans-101"/>
      <use x="466.873047" xlink:href="#DejaVuSans-97"/>
      <use x="528.152344" xlink:href="#DejaVuSans-108"/>
      <use x="555.935547" xlink:href="#DejaVuSans-105"/>
      <use x="583.71875" xlink:href="#DejaVuSans-122"/>
      <use x="636.208984" xlink:href="#DejaVuSans-97"/>
      <use x="697.488281" xlink:href="#DejaVuSans-116"/>
      <use x="736.697266" xlink:href="#DejaVuSans-105"/>
      <use x="764.480469" xlink:href="#DejaVuSans-111"/>
      <use x="825.662109" xlink:href="#DejaVuSans-110"/>
     </g>
    </g>
   </g>
   <g id="matplotlib.axis_2">
    <g id="ytick_1">
     <g id="line2d_7">
      <defs>
       <path d="M 0 0 
L -3.5 0 
" id="me334f924b4" style="stroke:#000000;stroke-width:0.8;"/>
      </defs>
      <g>
       <use style="stroke:#000000;stroke-width:0.8;" x="54" xlink:href="#me334f924b4" y="399.308743"/>
      </g>
     </g>
     <g id="text_8">
      <!-- 4000 -->
      <g transform="translate(11.37 404.627649)scale(0.14 -0.14)">
       <use xlink:href="#DejaVuSans-52"/>
       <use x="63.623047" xlink:href="#DejaVuSans-48"/>
       <use x="127.246094" xlink:href="#DejaVuSans-48"/>
       <use x="190.869141" xlink:href="#DejaVuSans-48"/>
      </g>
     </g>
    </g>
    <g id="ytick_2">
     <g id="line2d_8">
      <g>
       <use style="stroke:#000000;stroke-width:0.8;" x="54" xlink:href="#me334f924b4" y="335.369354"/>
      </g>
     </g>
     <g id="text_9">
      <!-- 6000 -->
      <g transform="translate(11.37 340.68826)scale(0.14 -0.14)">
       <use xlink:href="#DejaVuSans-54"/>
       <use x="63.623047" xlink:href="#DejaVuSans-48"/>
       <use x="127.246094" xlink:href="#DejaVuSans-48"/>
       <use x="190.869141" xlink:href="#DejaVuSans-48"/>
      </g>
     </g>
    </g>
    <g id="ytick_3">
     <g id="line2d_9">
      <g>
       <use style="stroke:#000000;stroke-width:0.8;" x="54" xlink:href="#me334f924b4" y="271.429966"/>
      </g>
     </g>
     <g id="text_10">
      <!-- 8000 -->
      <g transform="translate(11.37 276.748872)scale(0.14 -0.14)">
       <use xlink:href="#DejaVuSans-56"/>
       <use x="63.623047" xlink:href="#DejaVuSans-48"/>
       <use x="127.246094" xlink:href="#DejaVuSans-48"/>
       <use x="190.869141" xlink:href="#DejaVuSans-48"/>
      </g>
     </g>
    </g>
    <g id="ytick_4">
     <g id="line2d_10">
      <g>
       <use style="stroke:#000000;stroke-width:0.8;" x="54" xlink:href="#me334f924b4" y="207.490577"/>
      </g>
     </g>
     <g id="text_11">
      <!-- 10000 -->
      <g transform="translate(2.4625 212.809483)scale(0.14 -0.14)">
       <use xlink:href="#DejaVuSans-49"/>
       <use x="63.623047" xlink:href="#DejaVuSans-48"/>
       <use x="127.246094" xlink:href="#DejaVuSans-48"/>
       <use x="190.869141" xlink:href="#DejaVuSans-48"/>
       <use x="254.492188" xlink:href="#DejaVuSans-48"/>
      </g>
     </g>
    </g>
    <g id="ytick_5">
     <g id="line2d_11">
      <g>
       <use style="stroke:#000000;stroke-width:0.8;" x="54" xlink:href="#me334f924b4" y="143.551189"/>
      </g>
     </g>
     <g id="text_12">
      <!-- 12000 -->
      <g transform="translate(2.4625 148.870095)scale(0.14 -0.14)">
       <use xlink:href="#DejaVuSans-49"/>
       <use x="63.623047" xlink:href="#DejaVuSans-50"/>
       <use x="127.246094" xlink:href="#DejaVuSans-48"/>
       <use x="190.869141" xlink:href="#DejaVuSans-48"/>
       <use x="254.492188" xlink:href="#DejaVuSans-48"/>
      </g>
     </g>
    </g>
    <g id="ytick_6">
     <g id="line2d_12">
      <g>
       <use style="stroke:#000000;stroke-width:0.8;" x="54" xlink:href="#me334f924b4" y="79.6118"/>
      </g>
     </g>
     <g id="text_13">
      <!-- 14000 -->
      <g transform="translate(2.4625 84.930707)scale(0.14 -0.14)">
       <use xlink:href="#DejaVuSans-49"/>
       <use x="63.623047" xlink:href="#DejaVuSans-52"/>
       <use x="127.246094" xlink:href="#DejaVuSans-48"/>
       <use x="190.869141" xlink:href="#DejaVuSans-48"/>
       <use x="254.492188" xlink:href="#DejaVuSans-48"/>
      </g>
     </g>
    </g>
    <g id="text_14">
     <!-- Annual flow (Million $m^3$) -->
     <g transform="translate(-4.865 358.998182)rotate(-90)scale(0.16 -0.16)">
      <defs>
       <path d="M 34.1875 63.1875 
L 20.796875 26.90625 
L 47.609375 26.90625 
z
M 28.609375 72.90625 
L 39.796875 72.90625 
L 67.578125 0 
L 57.328125 0 
L 50.6875 18.703125 
L 17.828125 18.703125 
L 11.1875 0 
L 0.78125 0 
z
" id="DejaVuSans-65"/>
       <path d="M 8.5 21.578125 
L 8.5 54.6875 
L 17.484375 54.6875 
L 17.484375 21.921875 
Q 17.484375 14.15625 20.5 10.265625 
Q 23.53125 6.390625 29.59375 6.390625 
Q 36.859375 6.390625 41.078125 11.03125 
Q 45.3125 15.671875 45.3125 23.6875 
L 45.3125 54.6875 
L 54.296875 54.6875 
L 54.296875 0 
L 45.3125 0 
L 45.3125 8.40625 
Q 42.046875 3.421875 37.71875 1 
Q 33.40625 -1.421875 27.6875 -1.421875 
Q 18.265625 -1.421875 13.375 4.4375 
Q 8.5 10.296875 8.5 21.578125 
z
M 31.109375 56 
z
" id="DejaVuSans-117"/>
       <path d="M 37.109375 75.984375 
L 37.109375 68.5 
L 28.515625 68.5 
Q 23.6875 68.5 21.796875 66.546875 
Q 19.921875 64.59375 19.921875 59.515625 
L 19.921875 54.6875 
L 34.71875 54.6875 
L 34.71875 47.703125 
L 19.921875 47.703125 
L 19.921875 0 
L 10.890625 0 
L 10.890625 47.703125 
L 2.296875 47.703125 
L 2.296875 54.6875 
L 10.890625 54.6875 
L 10.890625 58.5 
Q 10.890625 67.625 15.140625 71.796875 
Q 19.390625 75.984375 28.609375 75.984375 
z
" id="DejaVuSans-102"/>
       <path d="M 4.203125 54.6875 
L 13.1875 54.6875 
L 24.421875 12.015625 
L 35.59375 54.6875 
L 46.1875 54.6875 
L 57.421875 12.015625 
L 68.609375 54.6875 
L 77.59375 54.6875 
L 63.28125 0 
L 52.6875 0 
L 40.921875 44.828125 
L 29.109375 0 
L 18.5 0 
z
" id="DejaVuSans-119"/>
       <path d="M 31 75.875 
Q 24.46875 64.65625 21.28125 53.65625 
Q 18.109375 42.671875 18.109375 31.390625 
Q 18.109375 20.125 21.3125 9.0625 
Q 24.515625 -2 31 -13.1875 
L 23.1875 -13.1875 
Q 15.875 -1.703125 12.234375 9.375 
Q 8.59375 20.453125 8.59375 31.390625 
Q 8.59375 42.28125 12.203125 53.3125 
Q 15.828125 64.359375 23.1875 75.875 
z
" id="DejaVuSans-40"/>
       <path d="M 9.8125 72.90625 
L 24.515625 72.90625 
L 43.109375 23.296875 
L 61.8125 72.90625 
L 76.515625 72.90625 
L 76.515625 0 
L 66.890625 0 
L 66.890625 64.015625 
L 48.09375 14.015625 
L 38.1875 14.015625 
L 19.390625 64.015625 
L 19.390625 0 
L 9.8125 0 
z
" id="DejaVuSans-77"/>
       <path d="M 89.796875 33.015625 
L 83.40625 0 
L 74.421875 0 
L 80.71875 32.71875 
Q 81.109375 34.8125 81.296875 36.328125 
Q 81.5 37.84375 81.5 38.921875 
Q 81.5 43.3125 79.046875 45.75 
Q 76.609375 48.1875 72.21875 48.1875 
Q 65.671875 48.1875 60.546875 43.28125 
Q 55.421875 38.375 53.90625 30.515625 
L 47.90625 0 
L 38.921875 0 
L 45.3125 32.71875 
Q 45.703125 34.515625 45.890625 36.046875 
Q 46.09375 37.59375 46.09375 38.8125 
Q 46.09375 43.265625 43.65625 45.71875 
Q 41.21875 48.1875 36.921875 48.1875 
Q 30.28125 48.1875 25.140625 43.28125 
Q 20.015625 38.375 18.5 30.515625 
L 12.5 0 
L 3.515625 0 
L 14.203125 54.6875 
L 23.1875 54.6875 
L 21.484375 46.1875 
Q 25.140625 50.984375 30.046875 53.484375 
Q 34.96875 56 40.578125 56 
Q 46.53125 56 50.359375 52.875 
Q 54.203125 49.75 54.984375 44.1875 
Q 59.078125 49.953125 64.46875 52.96875 
Q 69.875 56 75.875 56 
Q 82.90625 56 86.734375 51.953125 
Q 90.578125 47.90625 90.578125 40.484375 
Q 90.578125 38.875 90.375 36.9375 
Q 90.1875 35.015625 89.796875 33.015625 
z
" id="DejaVuSans-Oblique-109"/>
       <path d="M 40.578125 39.3125 
Q 47.65625 37.796875 51.625 33 
Q 55.609375 28.21875 55.609375 21.1875 
Q 55.609375 10.40625 48.1875 4.484375 
Q 40.765625 -1.421875 27.09375 -1.421875 
Q 22.515625 -1.421875 17.65625 -0.515625 
Q 12.796875 0.390625 7.625 2.203125 
L 7.625 11.71875 
Q 11.71875 9.328125 16.59375 8.109375 
Q 21.484375 6.890625 26.8125 6.890625 
Q 36.078125 6.890625 40.9375 10.546875 
Q 45.796875 14.203125 45.796875 21.1875 
Q 45.796875 27.640625 41.28125 31.265625 
Q 36.765625 34.90625 28.71875 34.90625 
L 20.21875 34.90625 
L 20.21875 43.015625 
L 29.109375 43.015625 
Q 36.375 43.015625 40.234375 45.921875 
Q 44.09375 48.828125 44.09375 54.296875 
Q 44.09375 59.90625 40.109375 62.90625 
Q 36.140625 65.921875 28.71875 65.921875 
Q 24.65625 65.921875 20.015625 65.03125 
Q 15.375 64.15625 9.8125 62.3125 
L 9.8125 71.09375 
Q 15.4375 72.65625 20.34375 73.4375 
Q 25.25 74.21875 29.59375 74.21875 
Q 40.828125 74.21875 47.359375 69.109375 
Q 53.90625 64.015625 53.90625 55.328125 
Q 53.90625 49.265625 50.4375 45.09375 
Q 46.96875 40.921875 40.578125 39.3125 
z
" id="DejaVuSans-51"/>
       <path d="M 8.015625 75.875 
L 15.828125 75.875 
Q 23.140625 64.359375 26.78125 53.3125 
Q 30.421875 42.28125 30.421875 31.390625 
Q 30.421875 20.453125 26.78125 9.375 
Q 23.140625 -1.703125 15.828125 -13.1875 
L 8.015625 -13.1875 
Q 14.5 -2 17.703125 9.0625 
Q 20.90625 20.125 20.90625 31.390625 
Q 20.90625 42.671875 17.703125 53.65625 
Q 14.5 64.65625 8.015625 75.875 
z
" id="DejaVuSans-41"/>
      </defs>
      <use transform="translate(0 0.765625)" xlink:href="#DejaVuSans-65"/>
      <use transform="translate(68.408203 0.765625)" xlink:href="#DejaVuSans-110"/>
      <use transform="translate(131.787109 0.765625)" xlink:href="#DejaVuSans-110"/>
      <use transform="translate(195.166016 0.765625)" xlink:href="#DejaVuSans-117"/>
      <use transform="translate(258.544922 0.765625)" xlink:href="#DejaVuSans-97"/>
      <use transform="translate(319.824219 0.765625)" xlink:href="#DejaVuSans-108"/>
      <use transform="translate(347.607422 0.765625)" xlink:href="#DejaVuSans-32"/>
      <use transform="translate(379.394531 0.765625)" xlink:href="#DejaVuSans-102"/>
      <use transform="translate(414.599609 0.765625)" xlink:href="#DejaVuSans-108"/>
      <use transform="translate(442.382812 0.765625)" xlink:href="#DejaVuSans-111"/>
      <use transform="translate(503.564453 0.765625)" xlink:href="#DejaVuSans-119"/>
      <use transform="translate(585.351562 0.765625)" xlink:href="#DejaVuSans-32"/>
      <use transform="translate(617.138672 0.765625)" xlink:href="#DejaVuSans-40"/>
      <use transform="translate(656.152344 0.765625)" xlink:href="#DejaVuSans-77"/>
      <use transform="translate(742.431641 0.765625)" xlink:href="#DejaVuSans-105"/>
      <use transform="translate(770.214844 0.765625)" xlink:href="#DejaVuSans-108"/>
      <use transform="translate(797.998047 0.765625)" xlink:href="#DejaVuSans-108"/>
      <use transform="translate(825.78125 0.765625)" xlink:href="#DejaVuSans-105"/>
      <use transform="translate(853.564453 0.765625)" xlink:href="#DejaVuSans-111"/>
      <use transform="translate(914.746094 0.765625)" xlink:href="#DejaVuSans-110"/>
      <use transform="translate(978.125 0.765625)" xlink:href="#DejaVuSans-32"/>
      <use transform="translate(1009.912109 0.765625)" xlink:href="#DejaVuSans-Oblique-109"/>
      <use transform="translate(1111.974115 39.046875)scale(0.7)" xlink:href="#DejaVuSans-51"/>
      <use transform="translate(1159.244622 0.765625)" xlink:href="#DejaVuSans-41"/>
     </g>
    </g>
   </g>
   <g id="LineCollection_1">
    <path clip-path="url(#p5e73871cd8)" d="M 69.218182 306.052745 
L 373.581818 306.052745 
" style="fill:none;stroke:#005f73;stroke-width:2;"/>
   </g>
   <g id="LineCollection_2">
    <path clip-path="url(#p5e73871cd8)" d="M 69.218182 339.068029 
L 373.581818 339.068029 
" style="fill:none;stroke:#005f73;stroke-dasharray:7.4,3.2;stroke-dashoffset:0;stroke-width:2;"/>
   </g>
   <g id="line2d_13">
    <path clip-path="url(#p5e73871cd8)" d="M 69.218182 289.120183 
L 72.116883 351.865649 
L 75.015584 243.147431 
L 77.914286 368.741918 
L 80.812987 349.310442 
L 83.711688 379.274946 
L 86.61039 374.562106 
L 89.509091 343.618336 
L 92.407792 364.491323 
L 95.306494 403.249893 
L 98.205195 371.53022 
L 101.103896 418.807567 
L 104.002597 171.333675 
L 106.901299 409.047249 
L 109.8 171.95409 
L 112.698701 250.961128 
L 115.597403 304.297515 
L 118.496104 320.765957 
L 121.394805 258.382732 
L 124.293506 317.247534 
L 127.192208 338.576182 
L 130.090909 370.672608 
L 132.98961 277.321006 
L 135.888312 325.320549 
L 138.787013 421.324878 
L 141.685714 315.219599 
L 144.584416 302.855097 
L 147.483117 288.987448 
L 150.381818 389.227978 
L 153.280519 305.487555 
L 156.179221 331.298157 
L 159.077922 355.695246 
L 161.976623 306.765376 
L 164.875325 231.366355 
L 167.774026 430.969812 
L 170.672727 335.469687 
L 173.571429 381.360691 
L 176.47013 354.13634 
L 179.368831 366.422605 
L 182.267532 288.751908 
L 185.166234 345.074674 
L 188.064935 244.321107 
L 190.963636 159.071188 
L 193.862338 379.68297 
L 196.761039 223.666347 
L 199.65974 151.898373 
L 202.558442 153.304078 
L 205.457143 385.075101 
L 208.355844 242.65908 
L 211.254545 94.607107 
L 214.153247 230.389771 
L 217.051948 278.060868 
L 219.950649 356.20359 
L 222.849351 315.144201 
L 225.748052 308.345852 
L 228.646753 261.883843 
L 231.545455 431.549256 
L 234.444156 362.366144 
L 237.342857 200.583398 
L 240.241558 241.947572 
L 243.14026 352.616315 
L 246.038961 390.827107 
L 248.937662 151.12728 
L 251.836364 156.482067 
L 254.735065 254.260968 
L 257.633766 283.45363 
L 260.532468 233.440586 
L 263.431169 386.750811 
L 266.32987 359.252157 
L 269.228571 359.824147 
L 272.127273 228.324611 
L 275.025974 270.608387 
L 277.924675 393.670696 
L 280.823377 343.8062 
L 283.722078 362.457355 
L 286.620779 281.690179 
L 289.519481 359.651544 
L 292.418182 276.305146 
L 295.316883 285.779686 
L 298.215584 237.750213 
L 301.114286 364.506978 
L 304.012987 354.847414 
L 306.911688 316.532792 
L 309.81039 354.571258 
L 312.709091 299.424967 
L 315.607792 308.380988 
L 318.506494 152.942784 
L 321.405195 288.462817 
L 324.303896 392.353165 
L 327.202597 303.468217 
L 330.101299 274.703533 
L 333 342.423484 
L 335.898701 374.128647 
L 338.797403 356.082449 
L 341.696104 388.106356 
L 344.594805 393.032732 
L 347.493506 392.697464 
L 350.392208 264.636773 
L 353.290909 323.856126 
L 356.18961 308.667555 
L 359.088312 283.29822 
L 361.987013 102.001147 
L 364.885714 157.140734 
L 367.784416 337.610127 
L 370.683117 126.831458 
" style="fill:none;stroke:#001219;stroke-linecap:square;stroke-width:3;"/>
   </g>
   <g id="line2d_14">
    <path clip-path="url(#p5e73871cd8)" d="M 83.711688 348.991961 
L 86.61039 360.781744 
L 89.509091 344.369782 
L 92.407792 359.451485 
L 95.306494 341.561884 
L 98.205195 332.62092 
L 101.103896 325.804981 
L 104.002597 320.914257 
L 106.901299 313.165442 
L 109.8 308.870634 
L 112.698701 302.991407 
L 115.597403 302.913401 
L 118.496104 290.051034 
L 121.394805 304.049604 
L 124.293506 305.165986 
L 127.192208 318.190119 
L 130.090909 322.907567 
L 132.98961 321.515927 
L 135.888312 327.739467 
L 138.787013 332.021807 
L 141.685714 333.299316 
L 144.584416 334.855601 
L 147.483117 329.045749 
L 150.381818 324.867949 
L 153.280519 334.472604 
L 156.179221 326.667523 
L 159.077922 332.680383 
L 161.976623 337.342204 
L 164.875325 344.381931 
L 167.774026 335.24755 
L 170.672727 338.846378 
L 173.571429 330.939314 
L 176.47013 313.064418 
L 179.368831 319.693334 
L 182.267532 318.993518 
L 185.166234 293.623327 
L 188.064935 277.062706 
L 190.963636 277.400306 
L 193.862338 267.266233 
L 196.761039 242.555577 
L 199.65974 237.249887 
L 202.558442 231.157742 
L 205.457143 241.3289 
L 208.355844 255.51737 
L 211.254545 249.032318 
L 214.153247 252.506464 
L 217.051948 277.929405 
L 219.950649 296.935068 
L 222.849351 280.163127 
L 225.748052 280.098229 
L 228.646753 303.553754 
L 231.545455 318.138968 
L 234.444156 306.599507 
L 237.342857 288.442958 
L 240.241558 282.908045 
L 243.14026 280.64523 
L 246.038961 278.059521 
L 248.937662 273.986902 
L 251.836364 273.70365 
L 254.735065 288.180167 
L 257.633766 286.941661 
L 260.532468 279.486648 
L 263.431169 279.744963 
L 266.32987 297.261159 
L 269.228571 315.986448 
L 272.127273 318.479765 
L 275.025974 325.406958 
L 277.924675 329.303744 
L 280.823377 320.124605 
L 283.722078 309.079076 
L 286.620779 309.504593 
L 289.519481 321.006649 
L 292.418182 325.181572 
L 295.316883 321.627181 
L 298.215584 317.592606 
L 301.114286 312.676626 
L 304.012987 300.972201 
L 306.911688 294.500576 
L 309.81039 305.050255 
L 312.709091 306.658331 
L 315.607792 310.017706 
L 318.506494 308.01001 
L 321.405195 309.762908 
L 324.303896 313.358539 
L 327.202597 316.407169 
L 330.101299 324.916863 
L 333 332.581916 
L 335.898701 342.735811 
L 338.797403 345.953561 
L 341.696104 338.345733 
L 344.594805 336.512271 
L 347.493506 320.811954 
L 350.392208 303.968081 
L 353.290909 300.648028 
L 356.18961 279.807304 
" style="fill:none;stroke:#808080;stroke-linecap:square;stroke-width:3;"/>
   </g>
   <g id="line2d_15">
    <path clip-path="url(#p5e73871cd8)" d="M 83.711688 348.991961 
L 86.61039 360.781744 
L 89.509091 344.369782 
L 92.407792 359.451485 
L 95.306494 341.561884 
L 98.205195 332.62092 
L 101.103896 325.804981 
L 104.002597 320.914257 
L 106.901299 313.165442 
L 109.8 308.870634 
L 112.698701 302.991407 
L 115.597403 302.913401 
L 118.496104 290.051034 
L 121.394805 304.049604 
L 124.293506 305.165986 
L 127.192208 318.190119 
L 130.090909 322.907567 
L 132.98961 321.515927 
L 135.888312 327.739467 
L 138.787013 332.021807 
L 141.685714 333.299316 
L 144.584416 334.855601 
L 147.483117 329.045749 
L 150.381818 324.867949 
L 153.280519 334.472604 
L 156.179221 326.667523 
L 159.077922 332.680383 
L 161.976623 337.342204 
L 164.875325 344.381931 
L 167.774026 335.24755 
L 170.672727 338.846378 
L 173.571429 330.939314 
L 176.47013 313.064418 
L 179.368831 319.693334 
L 182.267532 318.993518 
L 185.166234 293.623327 
L 188.064935 277.062706 
L 190.963636 277.400306 
L 193.862338 267.266233 
L 196.761039 242.555577 
L 199.65974 237.249887 
L 202.558442 231.157742 
L 205.457143 241.3289 
L 208.355844 255.51737 
L 211.254545 249.032318 
L 214.153247 252.506464 
L 217.051948 277.929405 
L 219.950649 296.935068 
L 222.849351 280.163127 
L 225.748052 280.098229 
L 228.646753 303.553754 
L 231.545455 318.138968 
L 234.444156 306.599507 
L 237.342857 288.442958 
L 240.241558 282.908045 
L 243.14026 280.64523 
L 246.038961 278.059521 
L 248.937662 273.986902 
L 251.836364 273.70365 
L 254.735065 288.180167 
L 257.633766 286.941661 
L 260.532468 279.486648 
L 263.431169 279.744963 
L 266.32987 297.261159 
L 269.228571 315.986448 
L 272.127273 318.479765 
L 275.025974 325.406958 
L 277.924675 329.303744 
L 280.823377 320.124605 
L 283.722078 309.079076 
L 286.620779 309.504593 
L 289.519481 321.006649 
L 292.418182 325.181572 
L 295.316883 321.627181 
L 298.215584 317.592606 
L 301.114286 312.676626 
L 304.012987 300.972201 
L 306.911688 294.500576 
L 309.81039 305.050255 
L 312.709091 306.658331 
L 315.607792 310.017706 
L 318.506494 308.01001 
L 321.405195 309.762908 
L 324.303896 313.358539 
L 327.202597 316.407169 
L 330.101299 324.916863 
L 333 332.581916 
L 335.898701 342.735811 
L 338.797403 345.953561 
L 341.696104 338.345733 
L 344.594805 336.512271 
L 347.493506 320.811954 
L 350.392208 303.968081 
L 353.290909 300.648028 
L 356.18961 279.807304 
" style="fill:none;stroke:#808080;stroke-linecap:square;stroke-width:3;"/>
   </g>
   <g id="line2d_16">
    <path clip-path="url(#p5e73871cd8)" d="M 83.711688 348.991961 
L 86.61039 360.781744 
L 89.509091 344.369782 
L 92.407792 359.451485 
L 95.306494 341.561884 
L 98.205195 332.62092 
L 101.103896 325.804981 
L 104.002597 320.914257 
L 106.901299 313.165442 
L 109.8 308.870634 
L 112.698701 302.991407 
L 115.597403 302.913401 
L 118.496104 290.051034 
L 121.394805 304.049604 
L 124.293506 305.165986 
L 127.192208 318.190119 
L 130.090909 322.907567 
L 132.98961 321.515927 
L 135.888312 327.739467 
L 138.787013 332.021807 
L 141.685714 333.299316 
L 144.584416 334.855601 
L 147.483117 329.045749 
L 150.381818 324.867949 
L 153.280519 334.472604 
L 156.179221 326.667523 
L 159.077922 332.680383 
L 161.976623 337.342204 
L 164.875325 344.381931 
L 167.774026 335.24755 
L 170.672727 338.846378 
L 173.571429 330.939314 
L 176.47013 313.064418 
L 179.368831 319.693334 
L 182.267532 318.993518 
L 185.166234 293.623327 
L 188.064935 277.062706 
L 190.963636 277.400306 
L 193.862338 267.266233 
L 196.761039 242.555577 
L 199.65974 237.249887 
L 202.558442 231.157742 
L 205.457143 241.3289 
L 208.355844 255.51737 
L 211.254545 249.032318 
L 214.153247 252.506464 
L 217.051948 277.929405 
L 219.950649 296.935068 
L 222.849351 280.163127 
L 225.748052 280.098229 
L 228.646753 303.553754 
L 231.545455 318.138968 
L 234.444156 306.599507 
L 237.342857 288.442958 
L 240.241558 282.908045 
L 243.14026 280.64523 
L 246.038961 278.059521 
L 248.937662 273.986902 
L 251.836364 273.70365 
L 254.735065 288.180167 
L 257.633766 286.941661 
L 260.532468 279.486648 
L 263.431169 279.744963 
L 266.32987 297.261159 
L 269.228571 315.986448 
L 272.127273 318.479765 
L 275.025974 325.406958 
L 277.924675 329.303744 
L 280.823377 320.124605 
L 283.722078 309.079076 
L 286.620779 309.504593 
L 289.519481 321.006649 
L 292.418182 325.181572 
L 295.316883 321.627181 
L 298.215584 317.592606 
L 301.114286 312.676626 
L 304.012987 300.972201 
L 306.911688 294.500576 
L 309.81039 305.050255 
L 312.709091 306.658331 
L 315.607792 310.017706 
L 318.506494 308.01001 
L 321.405195 309.762908 
L 324.303896 313.358539 
L 327.202597 316.407169 
L 330.101299 324.916863 
L 333 332.581916 
L 335.898701 342.735811 
L 338.797403 345.953561 
L 341.696104 338.345733 
L 344.594805 336.512271 
L 347.493506 320.811954 
L 350.392208 303.968081 
L 353.290909 300.648028 
L 356.18961 279.807304 
" style="fill:none;stroke:#808080;stroke-linecap:square;stroke-width:3;"/>
   </g>
   <g id="line2d_17">
    <path clip-path="url(#p5e73871cd8)" d="M 83.711688 348.991961 
L 86.61039 360.781744 
L 89.509091 344.369782 
L 92.407792 359.451485 
L 95.306494 341.561884 
L 98.205195 332.62092 
L 101.103896 325.804981 
L 104.002597 320.914257 
L 106.901299 313.165442 
L 109.8 308.870634 
L 112.698701 302.991407 
L 115.597403 302.913401 
L 118.496104 290.051034 
L 121.394805 304.049604 
L 124.293506 305.165986 
L 127.192208 318.190119 
L 130.090909 322.907567 
L 132.98961 321.515927 
L 135.888312 327.739467 
L 138.787013 332.021807 
L 141.685714 333.299316 
L 144.584416 334.855601 
L 147.483117 329.045749 
L 150.381818 324.867949 
L 153.280519 334.472604 
L 156.179221 326.667523 
L 159.077922 332.680383 
L 161.976623 337.342204 
L 164.875325 344.381931 
L 167.774026 335.24755 
L 170.672727 338.846378 
L 173.571429 330.939314 
L 176.47013 313.064418 
L 179.368831 319.693334 
L 182.267532 318.993518 
L 185.166234 293.623327 
L 188.064935 277.062706 
L 190.963636 277.400306 
L 193.862338 267.266233 
L 196.761039 242.555577 
L 199.65974 237.249887 
L 202.558442 231.157742 
L 205.457143 241.3289 
L 208.355844 255.51737 
L 211.254545 249.032318 
L 214.153247 252.506464 
L 217.051948 277.929405 
L 219.950649 296.935068 
L 222.849351 280.163127 
L 225.748052 280.098229 
L 228.646753 303.553754 
L 231.545455 318.138968 
L 234.444156 306.599507 
L 237.342857 288.442958 
L 240.241558 282.908045 
L 243.14026 280.64523 
L 246.038961 278.059521 
L 248.937662 273.986902 
L 251.836364 273.70365 
L 254.735065 288.180167 
L 257.633766 286.941661 
L 260.532468 279.486648 
L 263.431169 279.744963 
L 266.32987 297.261159 
L 269.228571 315.986448 
L 272.127273 318.479765 
L 275.025974 325.406958 
L 277.924675 329.303744 
L 280.823377 320.124605 
L 283.722078 309.079076 
L 286.620779 309.504593 
L 289.519481 321.006649 
L 292.418182 325.181572 
L 295.316883 321.627181 
L 298.215584 317.592606 
L 301.114286 312.676626 
L 304.012987 300.972201 
L 306.911688 294.500576 
L 309.81039 305.050255 
L 312.709091 306.658331 
L 315.607792 310.017706 
L 318.506494 308.01001 
L 321.405195 309.762908 
L 324.303896 313.358539 
L 327.202597 316.407169 
L 330.101299 324.916863 
L 333 332.581916 
L 335.898701 342.735811 
L 338.797403 345.953561 
L 341.696104 338.345733 
L 344.594805 336.512271 
L 347.493506 320.811954 
L 350.392208 303.968081 
L 353.290909 300.648028 
L 356.18961 279.807304 
" style="fill:none;stroke:#808080;stroke-linecap:square;stroke-width:3;"/>
   </g>
   <g id="line2d_18">
    <path clip-path="url(#p5e73871cd8)" d="M 83.711688 348.991961 
L 86.61039 360.781744 
L 89.509091 344.369782 
L 92.407792 359.451485 
L 95.306494 341.561884 
L 98.205195 332.62092 
L 101.103896 325.804981 
L 104.002597 320.914257 
L 106.901299 313.165442 
L 109.8 308.870634 
L 112.698701 302.991407 
L 115.597403 302.913401 
L 118.496104 290.051034 
L 121.394805 304.049604 
L 124.293506 305.165986 
L 127.192208 318.190119 
L 130.090909 322.907567 
L 132.98961 321.515927 
L 135.888312 327.739467 
L 138.787013 332.021807 
L 141.685714 333.299316 
L 144.584416 334.855601 
L 147.483117 329.045749 
L 150.381818 324.867949 
L 153.280519 334.472604 
L 156.179221 326.667523 
L 159.077922 332.680383 
L 161.976623 337.342204 
L 164.875325 344.381931 
L 167.774026 335.24755 
L 170.672727 338.846378 
L 173.571429 330.939314 
L 176.47013 313.064418 
L 179.368831 319.693334 
L 182.267532 318.993518 
L 185.166234 293.623327 
L 188.064935 277.062706 
L 190.963636 277.400306 
L 193.862338 267.266233 
L 196.761039 242.555577 
L 199.65974 237.249887 
L 202.558442 231.157742 
L 205.457143 241.3289 
L 208.355844 255.51737 
L 211.254545 249.032318 
L 214.153247 252.506464 
L 217.051948 277.929405 
L 219.950649 296.935068 
L 222.849351 280.163127 
L 225.748052 280.098229 
L 228.646753 303.553754 
L 231.545455 318.138968 
L 234.444156 306.599507 
L 237.342857 288.442958 
L 240.241558 282.908045 
L 243.14026 280.64523 
L 246.038961 278.059521 
L 248.937662 273.986902 
L 251.836364 273.70365 
L 254.735065 288.180167 
L 257.633766 286.941661 
L 260.532468 279.486648 
L 263.431169 279.744963 
L 266.32987 297.261159 
L 269.228571 315.986448 
L 272.127273 318.479765 
L 275.025974 325.406958 
L 277.924675 329.303744 
L 280.823377 320.124605 
L 283.722078 309.079076 
L 286.620779 309.504593 
L 289.519481 321.006649 
L 292.418182 325.181572 
L 295.316883 321.627181 
L 298.215584 317.592606 
L 301.114286 312.676626 
L 304.012987 300.972201 
L 306.911688 294.500576 
L 309.81039 305.050255 
L 312.709091 306.658331 
L 315.607792 310.017706 
L 318.506494 308.01001 
L 321.405195 309.762908 
L 324.303896 313.358539 
L 327.202597 316.407169 
L 330.101299 324.916863 
L 333 332.581916 
L 335.898701 342.735811 
L 338.797403 345.953561 
L 341.696104 338.345733 
L 344.594805 336.512271 
L 347.493506 320.811954 
L 350.392208 303.968081 
L 353.290909 300.648028 
L 356.18961 279.807304 
" style="fill:none;stroke:#808080;stroke-linecap:square;stroke-width:3;"/>
   </g>
   <g id="line2d_19">
    <path clip-path="url(#p5e73871cd8)" d="M 83.711688 348.991961 
L 86.61039 360.781744 
L 89.509091 344.369782 
L 92.407792 359.451485 
L 95.306494 341.561884 
L 98.205195 332.62092 
L 101.103896 325.804981 
L 104.002597 320.914257 
L 106.901299 313.165442 
L 109.8 308.870634 
L 112.698701 302.991407 
L 115.597403 302.913401 
L 118.496104 290.051034 
L 121.394805 304.049604 
L 124.293506 305.165986 
L 127.192208 318.190119 
L 130.090909 322.907567 
L 132.98961 321.515927 
L 135.888312 327.739467 
L 138.787013 332.021807 
L 141.685714 333.299316 
L 144.584416 334.855601 
L 147.483117 329.045749 
L 150.381818 324.867949 
L 153.280519 334.472604 
L 156.179221 326.667523 
L 159.077922 332.680383 
L 161.976623 337.342204 
L 164.875325 344.381931 
L 167.774026 335.24755 
L 170.672727 338.846378 
L 173.571429 330.939314 
L 176.47013 313.064418 
L 179.368831 319.693334 
L 182.267532 318.993518 
L 185.166234 293.623327 
L 188.064935 277.062706 
L 190.963636 277.400306 
L 193.862338 267.266233 
L 196.761039 242.555577 
L 199.65974 237.249887 
L 202.558442 231.157742 
L 205.457143 241.3289 
L 208.355844 255.51737 
L 211.254545 249.032318 
L 214.153247 252.506464 
L 217.051948 277.929405 
L 219.950649 296.935068 
L 222.849351 280.163127 
L 225.748052 280.098229 
L 228.646753 303.553754 
L 231.545455 318.138968 
L 234.444156 306.599507 
L 237.342857 288.442958 
L 240.241558 282.908045 
L 243.14026 280.64523 
L 246.038961 278.059521 
L 248.937662 273.986902 
L 251.836364 273.70365 
L 254.735065 288.180167 
L 257.633766 286.941661 
L 260.532468 279.486648 
L 263.431169 279.744963 
L 266.32987 297.261159 
L 269.228571 315.986448 
L 272.127273 318.479765 
L 275.025974 325.406958 
L 277.924675 329.303744 
L 280.823377 320.124605 
L 283.722078 309.079076 
L 286.620779 309.504593 
L 289.519481 321.006649 
L 292.418182 325.181572 
L 295.316883 321.627181 
L 298.215584 317.592606 
L 301.114286 312.676626 
L 304.012987 300.972201 
L 306.911688 294.500576 
L 309.81039 305.050255 
L 312.709091 306.658331 
L 315.607792 310.017706 
L 318.506494 308.01001 
L 321.405195 309.762908 
L 324.303896 313.358539 
L 327.202597 316.407169 
L 330.101299 324.916863 
L 333 332.581916 
L 335.898701 342.735811 
L 338.797403 345.953561 
L 341.696104 338.345733 
L 344.594805 336.512271 
L 347.493506 320.811954 
L 350.392208 303.968081 
L 353.290909 300.648028 
L 356.18961 279.807304 
" style="fill:none;stroke:#808080;stroke-linecap:square;stroke-width:3;"/>
   </g>
   <g id="line2d_20">
    <path clip-path="url(#p5e73871cd8)" d="M 83.711688 348.991961 
L 86.61039 360.781744 
L 89.509091 344.369782 
L 92.407792 359.451485 
L 95.306494 341.561884 
L 98.205195 332.62092 
L 101.103896 325.804981 
L 104.002597 320.914257 
L 106.901299 313.165442 
L 109.8 308.870634 
L 112.698701 302.991407 
L 115.597403 302.913401 
L 118.496104 290.051034 
L 121.394805 304.049604 
L 124.293506 305.165986 
L 127.192208 318.190119 
L 130.090909 322.907567 
L 132.98961 321.515927 
L 135.888312 327.739467 
L 138.787013 332.021807 
L 141.685714 333.299316 
L 144.584416 334.855601 
L 147.483117 329.045749 
L 150.381818 324.867949 
L 153.280519 334.472604 
L 156.179221 326.667523 
L 159.077922 332.680383 
L 161.976623 337.342204 
L 164.875325 344.381931 
L 167.774026 335.24755 
L 170.672727 338.846378 
L 173.571429 330.939314 
L 176.47013 313.064418 
L 179.368831 319.693334 
L 182.267532 318.993518 
L 185.166234 293.623327 
L 188.064935 277.062706 
L 190.963636 277.400306 
L 193.862338 267.266233 
L 196.761039 242.555577 
L 199.65974 237.249887 
L 202.558442 231.157742 
L 205.457143 241.3289 
L 208.355844 255.51737 
L 211.254545 249.032318 
L 214.153247 252.506464 
L 217.051948 277.929405 
L 219.950649 296.935068 
L 222.849351 280.163127 
L 225.748052 280.098229 
L 228.646753 303.553754 
L 231.545455 318.138968 
L 234.444156 306.599507 
L 237.342857 288.442958 
L 240.241558 282.908045 
L 243.14026 280.64523 
L 246.038961 278.059521 
L 248.937662 273.986902 
L 251.836364 273.70365 
L 254.735065 288.180167 
L 257.633766 286.941661 
L 260.532468 279.486648 
L 263.431169 279.744963 
L 266.32987 297.261159 
L 269.228571 315.986448 
L 272.127273 318.479765 
L 275.025974 325.406958 
L 277.924675 329.303744 
L 280.823377 320.124605 
L 283.722078 309.079076 
L 286.620779 309.504593 
L 289.519481 321.006649 
L 292.418182 325.181572 
L 295.316883 321.627181 
L 298.215584 317.592606 
L 301.114286 312.676626 
L 304.012987 300.972201 
L 306.911688 294.500576 
L 309.81039 305.050255 
L 312.709091 306.658331 
L 315.607792 310.017706 
L 318.506494 308.01001 
L 321.405195 309.762908 
L 324.303896 313.358539 
L 327.202597 316.407169 
L 330.101299 324.916863 
L 333 332.581916 
L 335.898701 342.735811 
L 338.797403 345.953561 
L 341.696104 338.345733 
L 344.594805 336.512271 
L 347.493506 320.811954 
L 350.392208 303.968081 
L 353.290909 300.648028 
L 356.18961 279.807304 
" style="fill:none;stroke:#808080;stroke-linecap:square;stroke-width:3;"/>
   </g>
   <g id="line2d_21">
    <path clip-path="url(#p5e73871cd8)" d="M 83.711688 348.991961 
L 86.61039 360.781744 
L 89.509091 344.369782 
L 92.407792 359.451485 
L 95.306494 341.561884 
L 98.205195 332.62092 
L 101.103896 325.804981 
L 104.002597 320.914257 
L 106.901299 313.165442 
L 109.8 308.870634 
L 112.698701 302.991407 
L 115.597403 302.913401 
L 118.496104 290.051034 
L 121.394805 304.049604 
L 124.293506 305.165986 
L 127.192208 318.190119 
L 130.090909 322.907567 
L 132.98961 321.515927 
L 135.888312 327.739467 
L 138.787013 332.021807 
L 141.685714 333.299316 
L 144.584416 334.855601 
L 147.483117 329.045749 
L 150.381818 324.867949 
L 153.280519 334.472604 
L 156.179221 326.667523 
L 159.077922 332.680383 
L 161.976623 337.342204 
L 164.875325 344.381931 
L 167.774026 335.24755 
L 170.672727 338.846378 
L 173.571429 330.939314 
L 176.47013 313.064418 
L 179.368831 319.693334 
L 182.267532 318.993518 
L 185.166234 293.623327 
L 188.064935 277.062706 
L 190.963636 277.400306 
L 193.862338 267.266233 
L 196.761039 242.555577 
L 199.65974 237.249887 
L 202.558442 231.157742 
L 205.457143 241.3289 
L 208.355844 255.51737 
L 211.254545 249.032318 
L 214.153247 252.506464 
L 217.051948 277.929405 
L 219.950649 296.935068 
L 222.849351 280.163127 
L 225.748052 280.098229 
L 228.646753 303.553754 
L 231.545455 318.138968 
L 234.444156 306.599507 
L 237.342857 288.442958 
L 240.241558 282.908045 
L 243.14026 280.64523 
L 246.038961 278.059521 
L 248.937662 273.986902 
L 251.836364 273.70365 
L 254.735065 288.180167 
L 257.633766 286.941661 
L 260.532468 279.486648 
L 263.431169 279.744963 
L 266.32987 297.261159 
L 269.228571 315.986448 
L 272.127273 318.479765 
L 275.025974 325.406958 
L 277.924675 329.303744 
L 280.823377 320.124605 
L 283.722078 309.079076 
L 286.620779 309.504593 
L 289.519481 321.006649 
L 292.418182 325.181572 
L 295.316883 321.627181 
L 298.215584 317.592606 
L 301.114286 312.676626 
L 304.012987 300.972201 
L 306.911688 294.500576 
L 309.81039 305.050255 
L 312.709091 306.658331 
L 315.607792 310.017706 
L 318.506494 308.01001 
L 321.405195 309.762908 
L 324.303896 313.358539 
L 327.202597 316.407169 
L 330.101299 324.916863 
L 333 332.581916 
L 335.898701 342.735811 
L 338.797403 345.953561 
L 341.696104 338.345733 
L 344.594805 336.512271 
L 347.493506 320.811954 
L 350.392208 303.968081 
L 353.290909 300.648028 
L 356.18961 279.807304 
" style="fill:none;stroke:#808080;stroke-linecap:square;stroke-width:3;"/>
   </g>
   <g id="patch_11">
    <path d="M 54 448.396364 
L 54 77.76 
" style="fill:none;stroke:#000000;stroke-linecap:square;stroke-linejoin:miter;stroke-width:0.8;"/>
   </g>
   <g id="patch_12">
    <path d="M 388.8 448.396364 
L 388.8 77.76 
" style="fill:none;stroke:#000000;stroke-linecap:square;stroke-linejoin:miter;stroke-width:0.8;"/>
   </g>
   <g id="patch_13">
    <path d="M 54 448.396364 
L 388.8 448.396364 
" style="fill:none;stroke:#000000;stroke-linecap:square;stroke-linejoin:miter;stroke-width:0.8;"/>
   </g>
   <g id="patch_14">
    <path d="M 54 77.76 
L 388.8 77.76 
" style="fill:none;stroke:#000000;stroke-linecap:square;stroke-linejoin:miter;stroke-width:0.8;"/>
   </g>
  </g>
 </g>
 <defs>
  <clipPath id="p5e73871cd8">
   <rect height="370.636364" width="334.8" x="54" y="77.76"/>
  </clipPath>
 </defs>
</svg>
